M48
; DRILL file {KiCad 7.0.5} date Tue Jul 25 13:54:53 2023
; FORMAT={-:-/ absolute / inch / decimal}
; #@! TF.CreationDate,2023-07-25T13:54:53-04:00
; #@! TF.GenerationSoftware,Kicad,Pcbnew,7.0.5
; #@! TF.FileFunction,Plated,1,2,PTH
FMAT,2
INCH
; #@! TA.AperFunction,Plated,PTH,ViaDrill
T1C0.0157
; #@! TA.AperFunction,Plated,PTH,ComponentDrill
T2C0.0394
%
G90
G05
T1
X2.3299Y-0.7965
X2.3299Y-2.1882
X2.3299Y-2.8992
X2.3965Y-2.8992
X3.1157Y-2.8992
X3.3185Y-2.8992
X3.3705Y-2.2433
X3.4276Y-2.8992
X3.926Y-2.476
X3.926Y-2.8992
X3.926Y-3.2075
X4.0059Y-1.5161
X4.0067Y-1.3878
X4.0193Y-3.2075
X4.0602Y-1.6551
X4.0614Y-1.6142
X4.0728Y-1.9642
X4.0728Y-2.2433
X4.1114Y-1.9197
X4.1114Y-2.0213
X4.1114Y-2.1949
X4.113Y-1.7287
X4.2071Y-1.6551
X4.2138Y-1.3878
X4.261Y-1.3244
X4.261Y-1.6551
X4.2679Y-2.1682
X4.3063Y-1.2083
X4.3063Y-1.2555
X4.3154Y-3.2075
X4.3228Y-2.2224
X4.3386Y-2.4378
X4.3386Y-2.7201
X4.3406Y-2.1682
X4.3413Y-1.5591
X4.3413Y-1.6551
X4.3823Y-2.0937
X4.3933Y-2.4378
X4.3933Y-2.7201
X4.4063Y-2.9087
X4.4126Y-1.8567
X4.4303Y-2.0929
X4.498Y-2.4378
X4.498Y-2.7205
X4.5248Y-2.1949
X4.6134Y-2.4378
X4.6134Y-2.5379
X4.6602Y-2.1949
X4.6602Y-2.2424
X4.6602Y-2.2898
X4.7531Y-2.7229
X4.8744Y-3.0508
X4.9085Y-2.7229
T2
X4.8823Y-1.1839
X4.8823Y-1.2839
X4.8823Y-1.3839
X4.8823Y-1.4839
X4.8823Y-1.5839
X4.8823Y-1.6839
X4.8823Y-1.7839
X4.8823Y-1.8839
X4.8823Y-1.9839
X5.4823Y-1.1839
X5.4823Y-1.2839
X5.4823Y-1.3839
X5.4823Y-1.4839
X5.4823Y-1.5839
X5.4823Y-1.6839
X5.4823Y-1.7839
X5.4823Y-1.8839
X5.4823Y-1.9839
T0
M30
