%TF.GenerationSoftware,KiCad,Pcbnew,7.0.5*%
%TF.CreationDate,2023-07-25T13:55:41-04:00*%
%TF.ProjectId,Logic-PCB,4c6f6769-632d-4504-9342-2e6b69636164,rev?*%
%TF.SameCoordinates,Original*%
%TF.FileFunction,Paste,Top*%
%TF.FilePolarity,Positive*%
%FSLAX46Y46*%
G04 Gerber Fmt 4.6, Leading zero omitted, Abs format (unit mm)*
G04 Created by KiCad (PCBNEW 7.0.5) date 2023-07-25 13:55:41*
%MOMM*%
%LPD*%
G01*
G04 APERTURE LIST*
G04 Aperture macros list*
%AMRoundRect*
0 Rectangle with rounded corners*
0 $1 Rounding radius*
0 $2 $3 $4 $5 $6 $7 $8 $9 X,Y pos of 4 corners*
0 Add a 4 corners polygon primitive as box body*
4,1,4,$2,$3,$4,$5,$6,$7,$8,$9,$2,$3,0*
0 Add four circle primitives for the rounded corners*
1,1,$1+$1,$2,$3*
1,1,$1+$1,$4,$5*
1,1,$1+$1,$6,$7*
1,1,$1+$1,$8,$9*
0 Add four rect primitives between the rounded corners*
20,1,$1+$1,$2,$3,$4,$5,0*
20,1,$1+$1,$4,$5,$6,$7,0*
20,1,$1+$1,$6,$7,$8,$9,0*
20,1,$1+$1,$8,$9,$2,$3,0*%
G04 Aperture macros list end*
%ADD10RoundRect,0.135000X0.185000X-0.135000X0.185000X0.135000X-0.185000X0.135000X-0.185000X-0.135000X0*%
%ADD11R,1.050000X0.600000*%
%ADD12R,2.200000X2.150000*%
%ADD13RoundRect,0.147500X0.172500X-0.147500X0.172500X0.147500X-0.172500X0.147500X-0.172500X-0.147500X0*%
%ADD14R,0.700000X0.600000*%
%ADD15RoundRect,0.135000X-0.135000X-0.185000X0.135000X-0.185000X0.135000X0.185000X-0.135000X0.185000X0*%
%ADD16RoundRect,0.135000X0.135000X0.185000X-0.135000X0.185000X-0.135000X-0.185000X0.135000X-0.185000X0*%
%ADD17RoundRect,0.135000X-0.185000X0.135000X-0.185000X-0.135000X0.185000X-0.135000X0.185000X0.135000X0*%
%ADD18R,0.300000X0.850000*%
%ADD19RoundRect,0.067500X-0.067500X-0.067500X0.067500X-0.067500X0.067500X0.067500X-0.067500X0.067500X0*%
%ADD20R,1.525000X0.650000*%
%ADD21RoundRect,0.147500X-0.172500X0.147500X-0.172500X-0.147500X0.172500X-0.147500X0.172500X0.147500X0*%
%ADD22RoundRect,0.067500X0.067500X-0.067500X0.067500X0.067500X-0.067500X0.067500X-0.067500X-0.067500X0*%
%ADD23R,0.200000X0.700000*%
%ADD24R,0.200000X0.600000*%
%ADD25R,0.600000X0.200000*%
%ADD26R,0.650000X1.525000*%
%ADD27R,1.300000X2.000000*%
%ADD28R,2.000000X2.000000*%
%ADD29R,1.200000X0.600000*%
%ADD30RoundRect,0.147500X-0.147500X-0.172500X0.147500X-0.172500X0.147500X0.172500X-0.147500X0.172500X0*%
%ADD31RoundRect,0.067500X-0.067500X0.067500X-0.067500X-0.067500X0.067500X-0.067500X0.067500X0.067500X0*%
%ADD32R,3.000000X1.600000*%
%ADD33R,6.200000X5.800000*%
%ADD34RoundRect,0.050000X-0.550000X0.350000X-0.550000X-0.350000X0.550000X-0.350000X0.550000X0.350000X0*%
%ADD35RoundRect,0.047500X-0.552500X0.332500X-0.552500X-0.332500X0.552500X-0.332500X0.552500X0.332500X0*%
%ADD36RoundRect,0.043750X-0.556250X0.306250X-0.556250X-0.306250X0.556250X-0.306250X0.556250X0.306250X0*%
%ADD37RoundRect,0.043750X0.556250X-0.306250X0.556250X0.306250X-0.556250X0.306250X-0.556250X-0.306250X0*%
%ADD38RoundRect,0.047500X0.552500X-0.332500X0.552500X0.332500X-0.552500X0.332500X-0.552500X-0.332500X0*%
%ADD39RoundRect,0.050000X0.550000X-0.350000X0.550000X0.350000X-0.550000X0.350000X-0.550000X-0.350000X0*%
%ADD40RoundRect,0.075000X0.525000X-0.775000X0.525000X0.775000X-0.525000X0.775000X-0.525000X-0.775000X0*%
%ADD41RoundRect,0.100000X0.700000X-0.750000X0.700000X0.750000X-0.700000X0.750000X-0.700000X-0.750000X0*%
%ADD42R,1.528000X0.650000*%
%ADD43R,1.150000X0.600000*%
%ADD44RoundRect,0.067500X0.067500X0.067500X-0.067500X0.067500X-0.067500X-0.067500X0.067500X-0.067500X0*%
%ADD45RoundRect,0.147500X0.147500X0.172500X-0.147500X0.172500X-0.147500X-0.172500X0.147500X-0.172500X0*%
%ADD46R,0.950000X0.450000*%
%ADD47R,1.050000X0.400000*%
%ADD48R,0.800000X1.600000*%
G04 APERTURE END LIST*
D10*
%TO.C,R44*%
X117080000Y-50250000D03*
X117080000Y-49230000D03*
%TD*%
D11*
%TO.C,Q10*%
X65620000Y-58470000D03*
X65620000Y-60370000D03*
X67820000Y-59420000D03*
%TD*%
D12*
%TO.C,D10*%
X128630000Y-76940000D03*
X133030000Y-76940000D03*
%TD*%
D13*
%TO.C,D6*%
X95280000Y-78355000D03*
X95280000Y-77385000D03*
%TD*%
D14*
%TO.C,Q8*%
X58700000Y-48030000D03*
X58700000Y-46130000D03*
X56700000Y-47080000D03*
%TD*%
D15*
%TO.C,R7*%
X61740000Y-41470000D03*
X62760000Y-41470000D03*
%TD*%
D14*
%TO.C,Q4*%
X34360000Y-61320000D03*
X34360000Y-59420000D03*
X32360000Y-60370000D03*
%TD*%
D16*
%TO.C,R3*%
X37210000Y-47600000D03*
X36190000Y-47600000D03*
%TD*%
D10*
%TO.C,R39*%
X109000000Y-52976666D03*
X109000000Y-51956666D03*
%TD*%
D17*
%TO.C,R20*%
X61330000Y-64930000D03*
X61330000Y-65950000D03*
%TD*%
D10*
%TO.C,R41*%
X117080000Y-41270000D03*
X117080000Y-40250000D03*
%TD*%
D13*
%TO.C,D5*%
X95280000Y-43205000D03*
X95280000Y-42235000D03*
%TD*%
D18*
%TO.C,IC1*%
X80780000Y-70055000D03*
X81280000Y-70055000D03*
X81780000Y-70055000D03*
X82280000Y-70055000D03*
X82280000Y-66905000D03*
X81780000Y-66905000D03*
X81280000Y-66905000D03*
X80780000Y-66905000D03*
%TD*%
D10*
%TO.C,R40*%
X109000000Y-38910000D03*
X109000000Y-37890000D03*
%TD*%
D19*
%TO.C,C12*%
X34085000Y-23812428D03*
X34635000Y-23812428D03*
%TD*%
D20*
%TO.C,IC7*%
X103008000Y-66090000D03*
X103008000Y-67360000D03*
X103008000Y-68630000D03*
X103008000Y-69900000D03*
X103008000Y-71170000D03*
X103008000Y-72440000D03*
X103008000Y-73710000D03*
X108432000Y-73710000D03*
X108432000Y-72440000D03*
X108432000Y-71170000D03*
X108432000Y-69900000D03*
X108432000Y-68630000D03*
X108432000Y-67360000D03*
X108432000Y-66090000D03*
%TD*%
D21*
%TO.C,D13*%
X69940000Y-81827500D03*
X69940000Y-82797500D03*
%TD*%
D22*
%TO.C,C21*%
X114000000Y-70855000D03*
X114000000Y-70305000D03*
%TD*%
D16*
%TO.C,R34*%
X110346250Y-77920000D03*
X109326250Y-77920000D03*
%TD*%
D19*
%TO.C,C29*%
X105315000Y-57000000D03*
X105865000Y-57000000D03*
%TD*%
D22*
%TO.C,C20*%
X107330000Y-79615000D03*
X107330000Y-79065000D03*
%TD*%
D23*
%TO.C,IC19*%
X104940000Y-39460000D03*
D24*
X105340000Y-39510000D03*
X105740000Y-39510000D03*
X106140000Y-39510000D03*
D25*
X106740000Y-39310000D03*
X106740000Y-38910000D03*
X106740000Y-38510000D03*
X106740000Y-38110000D03*
D24*
X106140000Y-37910000D03*
X105740000Y-37910000D03*
X105340000Y-37910000D03*
X104940000Y-37910000D03*
D25*
X104340000Y-38110000D03*
X104340000Y-38510000D03*
X104340000Y-38910000D03*
X104340000Y-39310000D03*
%TD*%
D17*
%TO.C,R2*%
X36480000Y-60290000D03*
X36480000Y-61310000D03*
%TD*%
D16*
%TO.C,R28*%
X35170000Y-30900000D03*
X34150000Y-30900000D03*
%TD*%
%TO.C,R14*%
X88980000Y-87460000D03*
X87960000Y-87460000D03*
%TD*%
D26*
%TO.C,IC2*%
X83300000Y-51002000D03*
X84570000Y-51002000D03*
X85840000Y-51002000D03*
X87110000Y-51002000D03*
X88380000Y-51002000D03*
X89650000Y-51002000D03*
X90920000Y-51002000D03*
X90920000Y-45578000D03*
X89650000Y-45578000D03*
X88380000Y-45578000D03*
X87110000Y-45578000D03*
X85840000Y-45578000D03*
X84570000Y-45578000D03*
X83300000Y-45578000D03*
%TD*%
D11*
%TO.C,Q5*%
X66020000Y-39870000D03*
X66020000Y-41770000D03*
X68220000Y-40820000D03*
%TD*%
D19*
%TO.C,C1*%
X83905000Y-43670000D03*
X84455000Y-43670000D03*
%TD*%
D16*
%TO.C,R10*%
X61740000Y-48500000D03*
X60720000Y-48500000D03*
%TD*%
D11*
%TO.C,Q9*%
X65620000Y-65630000D03*
X65620000Y-67530000D03*
X67820000Y-66580000D03*
%TD*%
D16*
%TO.C,R30*%
X106190000Y-85470000D03*
X105170000Y-85470000D03*
%TD*%
D27*
%TO.C,VR1*%
X122260000Y-90420000D03*
D28*
X121110000Y-86420000D03*
D27*
X119960000Y-90420000D03*
%TD*%
D23*
%TO.C,IC13*%
X112840000Y-32840000D03*
D24*
X113240000Y-32890000D03*
X113640000Y-32890000D03*
X114040000Y-32890000D03*
D25*
X114640000Y-32690000D03*
X114640000Y-32290000D03*
X114640000Y-31890000D03*
X114640000Y-31490000D03*
D24*
X114040000Y-31290000D03*
X113640000Y-31290000D03*
X113240000Y-31290000D03*
X112840000Y-31290000D03*
D25*
X112240000Y-31490000D03*
X112240000Y-31890000D03*
X112240000Y-32290000D03*
X112240000Y-32690000D03*
%TD*%
D19*
%TO.C,C14*%
X81795000Y-33810000D03*
X82345000Y-33810000D03*
%TD*%
D11*
%TO.C,Q6*%
X68190000Y-49000000D03*
X68190000Y-47100000D03*
X65990000Y-48050000D03*
%TD*%
D15*
%TO.C,R17*%
X32450000Y-79260000D03*
X33470000Y-79260000D03*
%TD*%
D10*
%TO.C,R42*%
X109000000Y-45943333D03*
X109000000Y-44923333D03*
%TD*%
D14*
%TO.C,Q7*%
X56700000Y-40610000D03*
X56700000Y-42510000D03*
X58700000Y-41560000D03*
%TD*%
D13*
%TO.C,D3*%
X95280000Y-60735000D03*
X95280000Y-59765000D03*
%TD*%
D29*
%TO.C,IC3*%
X83900000Y-84630000D03*
X83900000Y-85580000D03*
X83900000Y-86530000D03*
X86400000Y-86530000D03*
X86400000Y-84630000D03*
%TD*%
D16*
%TO.C,R8*%
X61740000Y-40100000D03*
X60720000Y-40100000D03*
%TD*%
D15*
%TO.C,R25*%
X59615000Y-84860000D03*
X60635000Y-84860000D03*
%TD*%
D14*
%TO.C,Q13*%
X49928626Y-22974000D03*
X49928626Y-21074000D03*
X47928626Y-22024000D03*
%TD*%
D15*
%TO.C,R24*%
X57636626Y-26360000D03*
X58656626Y-26360000D03*
%TD*%
D17*
%TO.C,R21*%
X62595000Y-61240000D03*
X62595000Y-62260000D03*
%TD*%
D16*
%TO.C,R36*%
X123160000Y-71090000D03*
X122140000Y-71090000D03*
%TD*%
D23*
%TO.C,IC17*%
X112840000Y-59780000D03*
D24*
X113240000Y-59830000D03*
X113640000Y-59830000D03*
X114040000Y-59830000D03*
D25*
X114640000Y-59630000D03*
X114640000Y-59230000D03*
X114640000Y-58830000D03*
X114640000Y-58430000D03*
D24*
X114040000Y-58230000D03*
X113640000Y-58230000D03*
X113240000Y-58230000D03*
X112840000Y-58230000D03*
D25*
X112240000Y-58430000D03*
X112240000Y-58830000D03*
X112240000Y-59230000D03*
X112240000Y-59630000D03*
%TD*%
D30*
%TO.C,D18*%
X121990000Y-68110000D03*
X122960000Y-68110000D03*
%TD*%
D15*
%TO.C,R23*%
X57636626Y-24454000D03*
X58656626Y-24454000D03*
%TD*%
%TO.C,R11*%
X82280000Y-60760000D03*
X83300000Y-60760000D03*
%TD*%
D14*
%TO.C,Q12*%
X59410000Y-61360000D03*
X59410000Y-59460000D03*
X57410000Y-60410000D03*
%TD*%
D19*
%TO.C,C22*%
X109325000Y-75750000D03*
X109875000Y-75750000D03*
%TD*%
D31*
%TO.C,C2*%
X82470000Y-79635000D03*
X82470000Y-80185000D03*
%TD*%
D28*
%TO.C,SW2*%
X25300000Y-32660000D03*
X31300000Y-32660000D03*
%TD*%
D32*
%TO.C,IC6*%
X131190000Y-67385000D03*
D33*
X138370000Y-69670000D03*
D32*
X131190000Y-71955000D03*
%TD*%
D19*
%TO.C,C10*%
X34085000Y-20307572D03*
X34635000Y-20307572D03*
%TD*%
D21*
%TO.C,D12*%
X67865626Y-24890400D03*
X67865626Y-25860400D03*
%TD*%
D34*
%TO.C,U2*%
X136420000Y-85580000D03*
D35*
X136420000Y-84350000D03*
D36*
X136420000Y-83370000D03*
D37*
X136420000Y-82290000D03*
D38*
X136420000Y-81310000D03*
D39*
X136420000Y-80080000D03*
D40*
X136710000Y-88350000D03*
X136710000Y-77310000D03*
D41*
X140310000Y-88350000D03*
X140310000Y-77310000D03*
%TD*%
D17*
%TO.C,R1*%
X36500000Y-64470000D03*
X36500000Y-65490000D03*
%TD*%
D10*
%TO.C,R15*%
X88170000Y-79730000D03*
X88170000Y-78710000D03*
%TD*%
D13*
%TO.C,D14*%
X95280000Y-25345000D03*
X95280000Y-24375000D03*
%TD*%
D19*
%TO.C,C13*%
X34055000Y-32660000D03*
X34605000Y-32660000D03*
%TD*%
D42*
%TO.C,IC8*%
X103499000Y-87065000D03*
X103499000Y-88335000D03*
X103499000Y-89605000D03*
X103499000Y-90875000D03*
X108921000Y-90875000D03*
X108921000Y-89605000D03*
X108921000Y-88335000D03*
X108921000Y-87065000D03*
%TD*%
D29*
%TO.C,IC4*%
X86390000Y-79660000D03*
X86390000Y-78710000D03*
X86390000Y-77760000D03*
X83890000Y-77760000D03*
X83890000Y-79660000D03*
%TD*%
D21*
%TO.C,D20*%
X115280000Y-68272500D03*
X115280000Y-69242500D03*
%TD*%
D10*
%TO.C,R38*%
X117080000Y-59230000D03*
X117080000Y-58210000D03*
%TD*%
%TO.C,R47*%
X91930000Y-52720000D03*
X91930000Y-51700000D03*
%TD*%
%TO.C,R43*%
X117080000Y-32310000D03*
X117080000Y-31290000D03*
%TD*%
D22*
%TO.C,C7*%
X129755000Y-85938000D03*
X129755000Y-85388000D03*
%TD*%
D10*
%TO.C,R37*%
X116420000Y-69250000D03*
X116420000Y-68230000D03*
%TD*%
D20*
%TO.C,IC9*%
X116740000Y-73710000D03*
X116740000Y-74980000D03*
X116740000Y-76250000D03*
X116740000Y-77520000D03*
X116740000Y-78790000D03*
X116740000Y-80060000D03*
X116740000Y-81330000D03*
X122164000Y-81330000D03*
X122164000Y-80060000D03*
X122164000Y-78790000D03*
X122164000Y-77520000D03*
X122164000Y-76250000D03*
X122164000Y-74980000D03*
X122164000Y-73710000D03*
%TD*%
D43*
%TO.C,U1*%
X35052000Y-82926000D03*
X35052000Y-81976000D03*
X35052000Y-81026000D03*
X32452000Y-81026000D03*
X32452000Y-82926000D03*
%TD*%
D14*
%TO.C,Q1*%
X33810000Y-47900000D03*
X33810000Y-46000000D03*
X31810000Y-46950000D03*
%TD*%
D44*
%TO.C,C15*%
X119985000Y-92210000D03*
X119435000Y-92210000D03*
%TD*%
D13*
%TO.C,D7*%
X95280000Y-86857500D03*
X95280000Y-85887500D03*
%TD*%
D22*
%TO.C,C4*%
X83460000Y-67105000D03*
X83460000Y-66555000D03*
%TD*%
D28*
%TO.C,SW1*%
X25300000Y-22060000D03*
X31300000Y-22060000D03*
%TD*%
D16*
%TO.C,R46*%
X125020000Y-56150000D03*
X124000000Y-56150000D03*
%TD*%
%TO.C,R12*%
X64320000Y-44300000D03*
X63300000Y-44300000D03*
%TD*%
D19*
%TO.C,C26*%
X113215000Y-56110000D03*
X113765000Y-56110000D03*
%TD*%
D10*
%TO.C,R31*%
X111640000Y-88330000D03*
X111640000Y-87310000D03*
%TD*%
D19*
%TO.C,C30*%
X113215000Y-47156666D03*
X113765000Y-47156666D03*
%TD*%
D23*
%TO.C,IC15*%
X104940000Y-60550000D03*
D24*
X105340000Y-60600000D03*
X105740000Y-60600000D03*
X106140000Y-60600000D03*
D25*
X106740000Y-60400000D03*
X106740000Y-60000000D03*
X106740000Y-59600000D03*
X106740000Y-59200000D03*
D24*
X106140000Y-59000000D03*
X105740000Y-59000000D03*
X105340000Y-59000000D03*
X104940000Y-59000000D03*
D25*
X104340000Y-59200000D03*
X104340000Y-59600000D03*
X104340000Y-60000000D03*
X104340000Y-60400000D03*
%TD*%
D19*
%TO.C,C24*%
X105315000Y-35910000D03*
X105865000Y-35910000D03*
%TD*%
D45*
%TO.C,D17*%
X112363750Y-77920000D03*
X111393750Y-77920000D03*
%TD*%
D10*
%TO.C,R22*%
X63860000Y-63390000D03*
X63860000Y-62370000D03*
%TD*%
D17*
%TO.C,R5*%
X38230000Y-62350000D03*
X38230000Y-63370000D03*
%TD*%
D46*
%TO.C,IC10*%
X120097500Y-68230000D03*
X120097500Y-67580000D03*
X120097500Y-66930000D03*
X117897500Y-66930000D03*
X117897500Y-67580000D03*
X117897500Y-68230000D03*
%TD*%
D44*
%TO.C,C9*%
X60730000Y-79900000D03*
X60180000Y-79900000D03*
%TD*%
D30*
%TO.C,D19*%
X122165000Y-69890000D03*
X123135000Y-69890000D03*
%TD*%
D44*
%TO.C,C5*%
X32475000Y-84510000D03*
X31925000Y-84510000D03*
%TD*%
D23*
%TO.C,IC20*%
X112840000Y-41820000D03*
D24*
X113240000Y-41870000D03*
X113640000Y-41870000D03*
X114040000Y-41870000D03*
D25*
X114640000Y-41670000D03*
X114640000Y-41270000D03*
X114640000Y-40870000D03*
X114640000Y-40470000D03*
D24*
X114040000Y-40270000D03*
X113640000Y-40270000D03*
X113240000Y-40270000D03*
X112840000Y-40270000D03*
D25*
X112240000Y-40470000D03*
X112240000Y-40870000D03*
X112240000Y-41270000D03*
X112240000Y-41670000D03*
%TD*%
D13*
%TO.C,D8*%
X42110000Y-82465000D03*
X42110000Y-81495000D03*
%TD*%
%TO.C,D2*%
X42110000Y-44775000D03*
X42110000Y-43805000D03*
%TD*%
D16*
%TO.C,R13*%
X91300000Y-43720000D03*
X90280000Y-43720000D03*
%TD*%
D19*
%TO.C,C28*%
X113215000Y-38203333D03*
X113765000Y-38203333D03*
%TD*%
%TO.C,C27*%
X105315000Y-49970000D03*
X105865000Y-49970000D03*
%TD*%
D15*
%TO.C,R33*%
X113750000Y-81580000D03*
X114770000Y-81580000D03*
%TD*%
D31*
%TO.C,C19*%
X114000000Y-67555000D03*
X114000000Y-68105000D03*
%TD*%
D21*
%TO.C,D21*%
X95280000Y-68457500D03*
X95280000Y-69427500D03*
%TD*%
D23*
%TO.C,IC16*%
X121600000Y-60120000D03*
D24*
X122000000Y-60170000D03*
X122400000Y-60170000D03*
X122800000Y-60170000D03*
D25*
X123400000Y-59970000D03*
X123400000Y-59570000D03*
X123400000Y-59170000D03*
X123400000Y-58770000D03*
D24*
X122800000Y-58570000D03*
X122400000Y-58570000D03*
X122000000Y-58570000D03*
X121600000Y-58570000D03*
D25*
X121000000Y-58770000D03*
X121000000Y-59170000D03*
X121000000Y-59570000D03*
X121000000Y-59970000D03*
%TD*%
D14*
%TO.C,Q11*%
X59410000Y-66440000D03*
X59410000Y-64540000D03*
X57410000Y-65490000D03*
%TD*%
D23*
%TO.C,IC21*%
X104940000Y-53520000D03*
D24*
X105340000Y-53570000D03*
X105740000Y-53570000D03*
X106140000Y-53570000D03*
D25*
X106740000Y-53370000D03*
X106740000Y-52970000D03*
X106740000Y-52570000D03*
X106740000Y-52170000D03*
D24*
X106140000Y-51970000D03*
X105740000Y-51970000D03*
X105340000Y-51970000D03*
X104940000Y-51970000D03*
D25*
X104340000Y-52170000D03*
X104340000Y-52570000D03*
X104340000Y-52970000D03*
X104340000Y-53370000D03*
%TD*%
D16*
%TO.C,R35*%
X122955000Y-66930000D03*
X121935000Y-66930000D03*
%TD*%
D14*
%TO.C,Q2*%
X33782000Y-42408000D03*
X33782000Y-40508000D03*
X31782000Y-41458000D03*
%TD*%
D19*
%TO.C,C11*%
X34055000Y-29140000D03*
X34605000Y-29140000D03*
%TD*%
D47*
%TO.C,IC5*%
X58380000Y-81630000D03*
X58380000Y-82280000D03*
X58380000Y-82930000D03*
X60280000Y-82930000D03*
X60280000Y-81630000D03*
%TD*%
D10*
%TO.C,R45*%
X109000000Y-60010000D03*
X109000000Y-58990000D03*
%TD*%
D31*
%TO.C,C16*%
X115300000Y-74945000D03*
X115300000Y-75495000D03*
%TD*%
D19*
%TO.C,C17*%
X108895000Y-92290000D03*
X109445000Y-92290000D03*
%TD*%
%TO.C,C25*%
X105315000Y-42940000D03*
X105865000Y-42940000D03*
%TD*%
D14*
%TO.C,Q3*%
X34360000Y-66400000D03*
X34360000Y-64500000D03*
X32360000Y-65450000D03*
%TD*%
D47*
%TO.C,IC12*%
X105760000Y-75750000D03*
X105760000Y-76400000D03*
X105760000Y-77050000D03*
X107660000Y-77050000D03*
X107660000Y-75750000D03*
%TD*%
D19*
%TO.C,C18*%
X113090000Y-87310000D03*
X113640000Y-87310000D03*
%TD*%
D44*
%TO.C,C6*%
X130035000Y-83480000D03*
X129485000Y-83480000D03*
%TD*%
D22*
%TO.C,C3*%
X88010000Y-84655000D03*
X88010000Y-84105000D03*
%TD*%
D10*
%TO.C,R32*%
X115160000Y-88330000D03*
X115160000Y-87310000D03*
%TD*%
D17*
%TO.C,R48*%
X83530000Y-69430000D03*
X83530000Y-70450000D03*
%TD*%
D21*
%TO.C,D9*%
X95280000Y-50695000D03*
X95280000Y-51665000D03*
%TD*%
D17*
%TO.C,R19*%
X61330000Y-59930000D03*
X61330000Y-60950000D03*
%TD*%
D44*
%TO.C,C8*%
X130035000Y-81297000D03*
X129485000Y-81297000D03*
%TD*%
D16*
%TO.C,R29*%
X82840000Y-31600000D03*
X81820000Y-31600000D03*
%TD*%
D46*
%TO.C,IC11*%
X120100000Y-71475000D03*
X120100000Y-70825000D03*
X120100000Y-70175000D03*
X117900000Y-70175000D03*
X117900000Y-70825000D03*
X117900000Y-71475000D03*
%TD*%
D23*
%TO.C,IC18*%
X104940000Y-46490000D03*
D24*
X105340000Y-46540000D03*
X105740000Y-46540000D03*
X106140000Y-46540000D03*
D25*
X106740000Y-46340000D03*
X106740000Y-45940000D03*
X106740000Y-45540000D03*
X106740000Y-45140000D03*
D24*
X106140000Y-44940000D03*
X105740000Y-44940000D03*
X105340000Y-44940000D03*
X104940000Y-44940000D03*
D25*
X104340000Y-45140000D03*
X104340000Y-45540000D03*
X104340000Y-45940000D03*
X104340000Y-46340000D03*
%TD*%
D30*
%TO.C,D16*%
X111370000Y-81580000D03*
X112340000Y-81580000D03*
%TD*%
D16*
%TO.C,R27*%
X35200000Y-22060000D03*
X34180000Y-22060000D03*
%TD*%
D29*
%TO.C,U3*%
X103580000Y-79590000D03*
X103580000Y-80540000D03*
X103580000Y-81490000D03*
X106080000Y-81490000D03*
X106080000Y-79590000D03*
%TD*%
D13*
%TO.C,D4*%
X69940000Y-44800000D03*
X69940000Y-43830000D03*
%TD*%
D10*
%TO.C,R18*%
X62580000Y-64840000D03*
X62580000Y-63820000D03*
%TD*%
D22*
%TO.C,C31*%
X118980000Y-60000000D03*
X118980000Y-59450000D03*
%TD*%
D19*
%TO.C,C23*%
X113215000Y-29250000D03*
X113765000Y-29250000D03*
%TD*%
D30*
%TO.C,D15*%
X102940000Y-85470000D03*
X103910000Y-85470000D03*
%TD*%
D15*
%TO.C,R16*%
X132430000Y-84730000D03*
X133450000Y-84730000D03*
%TD*%
D16*
%TO.C,R4*%
X37300000Y-40300000D03*
X36280000Y-40300000D03*
%TD*%
D13*
%TO.C,D1*%
X42110000Y-63315000D03*
X42110000Y-62345000D03*
%TD*%
%TO.C,D11*%
X69950000Y-63445000D03*
X69950000Y-62475000D03*
%TD*%
D15*
%TO.C,R26*%
X132450000Y-82280000D03*
X133470000Y-82280000D03*
%TD*%
D16*
%TO.C,R6*%
X39320000Y-44310000D03*
X38300000Y-44310000D03*
%TD*%
D15*
%TO.C,R9*%
X61740000Y-47090000D03*
X62760000Y-47090000D03*
%TD*%
D48*
%TO.C,S1*%
X130980000Y-61900000D03*
X132980000Y-61900000D03*
X136980000Y-61900000D03*
X138980000Y-61900000D03*
X130980000Y-59500000D03*
X132980000Y-59500000D03*
X136980000Y-59500000D03*
X138980000Y-59500000D03*
%TD*%
D23*
%TO.C,IC14*%
X112840000Y-50800000D03*
D24*
X113240000Y-50850000D03*
X113640000Y-50850000D03*
X114040000Y-50850000D03*
D25*
X114640000Y-50650000D03*
X114640000Y-50250000D03*
X114640000Y-49850000D03*
X114640000Y-49450000D03*
D24*
X114040000Y-49250000D03*
X113640000Y-49250000D03*
X113240000Y-49250000D03*
X112840000Y-49250000D03*
D25*
X112240000Y-49450000D03*
X112240000Y-49850000D03*
X112240000Y-50250000D03*
X112240000Y-50650000D03*
%TD*%
M02*
