%TF.GenerationSoftware,KiCad,Pcbnew,7.0.5*%
%TF.CreationDate,2023-07-25T13:55:41-04:00*%
%TF.ProjectId,Logic-PCB,4c6f6769-632d-4504-9342-2e6b69636164,rev?*%
%TF.SameCoordinates,Original*%
%TF.FileFunction,Soldermask,Top*%
%TF.FilePolarity,Negative*%
%FSLAX46Y46*%
G04 Gerber Fmt 4.6, Leading zero omitted, Abs format (unit mm)*
G04 Created by KiCad (PCBNEW 7.0.5) date 2023-07-25 13:55:41*
%MOMM*%
%LPD*%
G01*
G04 APERTURE LIST*
G04 Aperture macros list*
%AMRoundRect*
0 Rectangle with rounded corners*
0 $1 Rounding radius*
0 $2 $3 $4 $5 $6 $7 $8 $9 X,Y pos of 4 corners*
0 Add a 4 corners polygon primitive as box body*
4,1,4,$2,$3,$4,$5,$6,$7,$8,$9,$2,$3,0*
0 Add four circle primitives for the rounded corners*
1,1,$1+$1,$2,$3*
1,1,$1+$1,$4,$5*
1,1,$1+$1,$6,$7*
1,1,$1+$1,$8,$9*
0 Add four rect primitives between the rounded corners*
20,1,$1+$1,$2,$3,$4,$5,0*
20,1,$1+$1,$4,$5,$6,$7,0*
20,1,$1+$1,$6,$7,$8,$9,0*
20,1,$1+$1,$8,$9,$2,$3,0*%
G04 Aperture macros list end*
%ADD10RoundRect,0.135000X0.185000X-0.135000X0.185000X0.135000X-0.185000X0.135000X-0.185000X-0.135000X0*%
%ADD11R,1.050000X0.600000*%
%ADD12R,2.200000X2.150000*%
%ADD13RoundRect,0.147500X0.172500X-0.147500X0.172500X0.147500X-0.172500X0.147500X-0.172500X-0.147500X0*%
%ADD14R,0.700000X0.600000*%
%ADD15RoundRect,0.135000X-0.135000X-0.185000X0.135000X-0.185000X0.135000X0.185000X-0.135000X0.185000X0*%
%ADD16RoundRect,0.135000X0.135000X0.185000X-0.135000X0.185000X-0.135000X-0.185000X0.135000X-0.185000X0*%
%ADD17RoundRect,0.135000X-0.185000X0.135000X-0.185000X-0.135000X0.185000X-0.135000X0.185000X0.135000X0*%
%ADD18R,0.300000X0.850000*%
%ADD19RoundRect,0.075000X-0.125000X-0.075000X0.125000X-0.075000X0.125000X0.075000X-0.125000X0.075000X0*%
%ADD20R,1.525000X0.650000*%
%ADD21RoundRect,0.147500X-0.172500X0.147500X-0.172500X-0.147500X0.172500X-0.147500X0.172500X0.147500X0*%
%ADD22RoundRect,0.075000X0.075000X-0.125000X0.075000X0.125000X-0.075000X0.125000X-0.075000X-0.125000X0*%
%ADD23R,0.200000X0.700000*%
%ADD24R,0.200000X0.600000*%
%ADD25R,0.600000X0.200000*%
%ADD26R,0.650000X1.525000*%
%ADD27R,1.300000X2.000000*%
%ADD28R,2.000000X2.000000*%
%ADD29R,1.200000X0.600000*%
%ADD30RoundRect,0.147500X-0.147500X-0.172500X0.147500X-0.172500X0.147500X0.172500X-0.147500X0.172500X0*%
%ADD31RoundRect,0.075000X-0.075000X0.125000X-0.075000X-0.125000X0.075000X-0.125000X0.075000X0.125000X0*%
%ADD32R,3.000000X1.600000*%
%ADD33R,6.200000X5.800000*%
%ADD34RoundRect,0.050000X-0.550000X0.350000X-0.550000X-0.350000X0.550000X-0.350000X0.550000X0.350000X0*%
%ADD35RoundRect,0.047500X-0.552500X0.332500X-0.552500X-0.332500X0.552500X-0.332500X0.552500X0.332500X0*%
%ADD36RoundRect,0.043750X-0.556250X0.306250X-0.556250X-0.306250X0.556250X-0.306250X0.556250X0.306250X0*%
%ADD37RoundRect,0.043750X0.556250X-0.306250X0.556250X0.306250X-0.556250X0.306250X-0.556250X-0.306250X0*%
%ADD38RoundRect,0.047500X0.552500X-0.332500X0.552500X0.332500X-0.552500X0.332500X-0.552500X-0.332500X0*%
%ADD39RoundRect,0.050000X0.550000X-0.350000X0.550000X0.350000X-0.550000X0.350000X-0.550000X-0.350000X0*%
%ADD40RoundRect,0.075000X0.525000X-0.775000X0.525000X0.775000X-0.525000X0.775000X-0.525000X-0.775000X0*%
%ADD41RoundRect,0.100000X0.700000X-0.750000X0.700000X0.750000X-0.700000X0.750000X-0.700000X-0.750000X0*%
%ADD42R,1.528000X0.650000*%
%ADD43R,1.150000X0.600000*%
%ADD44RoundRect,0.075000X0.125000X0.075000X-0.125000X0.075000X-0.125000X-0.075000X0.125000X-0.075000X0*%
%ADD45C,1.500000*%
%ADD46RoundRect,0.147500X0.147500X0.172500X-0.147500X0.172500X-0.147500X-0.172500X0.147500X-0.172500X0*%
%ADD47R,0.950000X0.450000*%
%ADD48R,1.050000X0.400000*%
%ADD49R,0.800000X1.600000*%
G04 APERTURE END LIST*
%TO.C,G\u002A\u002A\u002A*%
G36*
X106953304Y-22544355D02*
G01*
X107036273Y-22544526D01*
X107117281Y-22544847D01*
X107194914Y-22545317D01*
X107267758Y-22545937D01*
X107334398Y-22546705D01*
X107393420Y-22547623D01*
X107443409Y-22548689D01*
X107482950Y-22549904D01*
X107507625Y-22551074D01*
X107626938Y-22560689D01*
X107733759Y-22574271D01*
X107828694Y-22592111D01*
X107912347Y-22614501D01*
X107985322Y-22641732D01*
X108048223Y-22674095D01*
X108101654Y-22711881D01*
X108146220Y-22755380D01*
X108182525Y-22804886D01*
X108211173Y-22860687D01*
X108224703Y-22896604D01*
X108237474Y-22937798D01*
X108247360Y-22977136D01*
X108254792Y-23017595D01*
X108260204Y-23062150D01*
X108264028Y-23113778D01*
X108266695Y-23175454D01*
X108267104Y-23188466D01*
X108271233Y-23326177D01*
X107958142Y-23326177D01*
X107645052Y-23326177D01*
X107640196Y-23270072D01*
X107633008Y-23220120D01*
X107620366Y-23180970D01*
X107601098Y-23150515D01*
X107574031Y-23126649D01*
X107553743Y-23114708D01*
X107540945Y-23108355D01*
X107528319Y-23102869D01*
X107514807Y-23098186D01*
X107499352Y-23094242D01*
X107480899Y-23090974D01*
X107458389Y-23088319D01*
X107430766Y-23086211D01*
X107396973Y-23084588D01*
X107355953Y-23083387D01*
X107306649Y-23082542D01*
X107248003Y-23081990D01*
X107178961Y-23081669D01*
X107098463Y-23081513D01*
X107005453Y-23081459D01*
X107002399Y-23081458D01*
X106911376Y-23081478D01*
X106832890Y-23081598D01*
X106765877Y-23081840D01*
X106709274Y-23082228D01*
X106662015Y-23082784D01*
X106623037Y-23083530D01*
X106591276Y-23084491D01*
X106565669Y-23085688D01*
X106545151Y-23087144D01*
X106528658Y-23088883D01*
X106515126Y-23090926D01*
X106509360Y-23092024D01*
X106444681Y-23110129D01*
X106390622Y-23136301D01*
X106346574Y-23171178D01*
X106311928Y-23215397D01*
X106286075Y-23269596D01*
X106268406Y-23334414D01*
X106266133Y-23346765D01*
X106262832Y-23374066D01*
X106260266Y-23411958D01*
X106258415Y-23458347D01*
X106257254Y-23511138D01*
X106256763Y-23568235D01*
X106256918Y-23627545D01*
X106257697Y-23686973D01*
X106259077Y-23744424D01*
X106261036Y-23797804D01*
X106263552Y-23845018D01*
X106266602Y-23883970D01*
X106270163Y-23912568D01*
X106272313Y-23923054D01*
X106293088Y-23982414D01*
X106321907Y-24030935D01*
X106359332Y-24069136D01*
X106405925Y-24097534D01*
X106462246Y-24116648D01*
X106487545Y-24121796D01*
X106503704Y-24123476D01*
X106531027Y-24124868D01*
X106569837Y-24125975D01*
X106620457Y-24126801D01*
X106683209Y-24127349D01*
X106758417Y-24127623D01*
X106846404Y-24127625D01*
X106947491Y-24127358D01*
X107007786Y-24127104D01*
X107100800Y-24126641D01*
X107181211Y-24126172D01*
X107250016Y-24125672D01*
X107308215Y-24125111D01*
X107356803Y-24124464D01*
X107396781Y-24123703D01*
X107429144Y-24122801D01*
X107454892Y-24121731D01*
X107475023Y-24120465D01*
X107490533Y-24118977D01*
X107502421Y-24117239D01*
X107511685Y-24115225D01*
X107518427Y-24113213D01*
X107560830Y-24094886D01*
X107594163Y-24070740D01*
X107619385Y-24039298D01*
X107637454Y-23999084D01*
X107649328Y-23948623D01*
X107654736Y-23903251D01*
X107659193Y-23849818D01*
X107978884Y-23849818D01*
X108298576Y-23849818D01*
X108294503Y-24004530D01*
X108291969Y-24076906D01*
X108288318Y-24137862D01*
X108283246Y-24189552D01*
X108276455Y-24234133D01*
X108267643Y-24273760D01*
X108256509Y-24310588D01*
X108248867Y-24331521D01*
X108216224Y-24399667D01*
X108173976Y-24459643D01*
X108121829Y-24511621D01*
X108059488Y-24555774D01*
X107986659Y-24592275D01*
X107903047Y-24621296D01*
X107808359Y-24643011D01*
X107702299Y-24657591D01*
X107691240Y-24658647D01*
X107672066Y-24659749D01*
X107640522Y-24660745D01*
X107597838Y-24661633D01*
X107545246Y-24662415D01*
X107483975Y-24663090D01*
X107415257Y-24663659D01*
X107340321Y-24664121D01*
X107260399Y-24664477D01*
X107176722Y-24664727D01*
X107090519Y-24664872D01*
X107003021Y-24664911D01*
X106915459Y-24664844D01*
X106829064Y-24664673D01*
X106745066Y-24664396D01*
X106664695Y-24664014D01*
X106589183Y-24663528D01*
X106519760Y-24662937D01*
X106457656Y-24662242D01*
X106404102Y-24661443D01*
X106360329Y-24660540D01*
X106327567Y-24659533D01*
X106307331Y-24658446D01*
X106192709Y-24645233D01*
X106089511Y-24625005D01*
X105997336Y-24597467D01*
X105915782Y-24562324D01*
X105844450Y-24519284D01*
X105782938Y-24468051D01*
X105730847Y-24408331D01*
X105687775Y-24339832D01*
X105653322Y-24262258D01*
X105627087Y-24175315D01*
X105622585Y-24155842D01*
X105619560Y-24141885D01*
X105616951Y-24128772D01*
X105614727Y-24115428D01*
X105612857Y-24100777D01*
X105611310Y-24083742D01*
X105610056Y-24063247D01*
X105609063Y-24038215D01*
X105608303Y-24007571D01*
X105607742Y-23970237D01*
X105607352Y-23925138D01*
X105607101Y-23871198D01*
X105606959Y-23807340D01*
X105606894Y-23732487D01*
X105606876Y-23645564D01*
X105606876Y-23604999D01*
X105606883Y-23512645D01*
X105606925Y-23432817D01*
X105607032Y-23364440D01*
X105607235Y-23306440D01*
X105607564Y-23257740D01*
X105608050Y-23217267D01*
X105608724Y-23183945D01*
X105609615Y-23156699D01*
X105610754Y-23134454D01*
X105612172Y-23116135D01*
X105613899Y-23100667D01*
X105615966Y-23086976D01*
X105618403Y-23073986D01*
X105621241Y-23060622D01*
X105622478Y-23055011D01*
X105646505Y-22967346D01*
X105678017Y-22889046D01*
X105717509Y-22819757D01*
X105765475Y-22759126D01*
X105822409Y-22706798D01*
X105888805Y-22662422D01*
X105965156Y-22625643D01*
X106051957Y-22596107D01*
X106149702Y-22573462D01*
X106258885Y-22557354D01*
X106327020Y-22550916D01*
X106351788Y-22549580D01*
X106388742Y-22548396D01*
X106436466Y-22547363D01*
X106493547Y-22546481D01*
X106558571Y-22545750D01*
X106630121Y-22545170D01*
X106706784Y-22544741D01*
X106787145Y-22544462D01*
X106869790Y-22544333D01*
X106953304Y-22544355D01*
G37*
G36*
X110186624Y-22558554D02*
G01*
X110295167Y-22558852D01*
X110414854Y-22559266D01*
X110528702Y-22559701D01*
X110629803Y-22560133D01*
X110719011Y-22560576D01*
X110797179Y-22561048D01*
X110865162Y-22561564D01*
X110923813Y-22562141D01*
X110973987Y-22562795D01*
X111016538Y-22563542D01*
X111052318Y-22564398D01*
X111082183Y-22565379D01*
X111106986Y-22566503D01*
X111127581Y-22567784D01*
X111144822Y-22569240D01*
X111159563Y-22570886D01*
X111172657Y-22572739D01*
X111179081Y-22573787D01*
X111254417Y-22588144D01*
X111319642Y-22604250D01*
X111378229Y-22623147D01*
X111433650Y-22645878D01*
X111458736Y-22657761D01*
X111494109Y-22675730D01*
X111521207Y-22691369D01*
X111544258Y-22707706D01*
X111567487Y-22727773D01*
X111595120Y-22754597D01*
X111598420Y-22757900D01*
X111645752Y-22811134D01*
X111684424Y-22868008D01*
X111715486Y-22930724D01*
X111739989Y-23001483D01*
X111758982Y-23082486D01*
X111762501Y-23101759D01*
X111765031Y-23117283D01*
X111767197Y-23133432D01*
X111769028Y-23151346D01*
X111770550Y-23172166D01*
X111771792Y-23197035D01*
X111772781Y-23227093D01*
X111773545Y-23263482D01*
X111774111Y-23307342D01*
X111774508Y-23359814D01*
X111774763Y-23422041D01*
X111774904Y-23495163D01*
X111774958Y-23580322D01*
X111774961Y-23615200D01*
X111774938Y-23708967D01*
X111774814Y-23790313D01*
X111774513Y-23860420D01*
X111773956Y-23920466D01*
X111773064Y-23971633D01*
X111771759Y-24015101D01*
X111769963Y-24052050D01*
X111767598Y-24083661D01*
X111764584Y-24111113D01*
X111760844Y-24135589D01*
X111756300Y-24158267D01*
X111750873Y-24180328D01*
X111744484Y-24202953D01*
X111737056Y-24227321D01*
X111733604Y-24238371D01*
X111701477Y-24320362D01*
X111659295Y-24393295D01*
X111607003Y-24457217D01*
X111544546Y-24512173D01*
X111471870Y-24558212D01*
X111388918Y-24595378D01*
X111295637Y-24623720D01*
X111271722Y-24629210D01*
X111247946Y-24634317D01*
X111225965Y-24638854D01*
X111204856Y-24642856D01*
X111183700Y-24646359D01*
X111161576Y-24649399D01*
X111137563Y-24652011D01*
X111110741Y-24654231D01*
X111080189Y-24656095D01*
X111044986Y-24657638D01*
X111004211Y-24658896D01*
X110956945Y-24659904D01*
X110902266Y-24660699D01*
X110839255Y-24661315D01*
X110766989Y-24661788D01*
X110684549Y-24662155D01*
X110591014Y-24662450D01*
X110485464Y-24662709D01*
X110401253Y-24662894D01*
X110304611Y-24663045D01*
X110210705Y-24663078D01*
X110120570Y-24663001D01*
X110035244Y-24662817D01*
X109955760Y-24662535D01*
X109883156Y-24662158D01*
X109818467Y-24661694D01*
X109762729Y-24661148D01*
X109716978Y-24660525D01*
X109682249Y-24659832D01*
X109659579Y-24659075D01*
X109653194Y-24658683D01*
X109538907Y-24645362D01*
X109436113Y-24625331D01*
X109344352Y-24598370D01*
X109263162Y-24564256D01*
X109192084Y-24522769D01*
X109130655Y-24473686D01*
X109078417Y-24416787D01*
X109042918Y-24365466D01*
X109021941Y-24327547D01*
X109004203Y-24287249D01*
X108988250Y-24240830D01*
X108972849Y-24185427D01*
X108966557Y-24159202D01*
X108961147Y-24132521D01*
X108956568Y-24104220D01*
X108952765Y-24073136D01*
X108949687Y-24038106D01*
X108947279Y-23997966D01*
X108945491Y-23951553D01*
X108944268Y-23897703D01*
X108943559Y-23835253D01*
X108943309Y-23763039D01*
X108943467Y-23679898D01*
X108943816Y-23615200D01*
X109599417Y-23615200D01*
X109599526Y-23688622D01*
X109600058Y-23750035D01*
X109601192Y-23801028D01*
X109603107Y-23843190D01*
X109605981Y-23878111D01*
X109609995Y-23907379D01*
X109615326Y-23932584D01*
X109622155Y-23955315D01*
X109630659Y-23977162D01*
X109641019Y-23999714D01*
X109643250Y-24004288D01*
X109670471Y-24046691D01*
X109706507Y-24080191D01*
X109752273Y-24105416D01*
X109808681Y-24122993D01*
X109819488Y-24125284D01*
X109836227Y-24127218D01*
X109865136Y-24128951D01*
X109904851Y-24130484D01*
X109954004Y-24131815D01*
X110011231Y-24132944D01*
X110075166Y-24133871D01*
X110144445Y-24134595D01*
X110217700Y-24135117D01*
X110293567Y-24135435D01*
X110370680Y-24135548D01*
X110447675Y-24135458D01*
X110523184Y-24135163D01*
X110595843Y-24134662D01*
X110664287Y-24133956D01*
X110727149Y-24133043D01*
X110783065Y-24131924D01*
X110830669Y-24130598D01*
X110868595Y-24129064D01*
X110895478Y-24127323D01*
X110908841Y-24125634D01*
X110967014Y-24109185D01*
X111014786Y-24086104D01*
X111053128Y-24055287D01*
X111083007Y-24015632D01*
X111105396Y-23966033D01*
X111121262Y-23905389D01*
X111125867Y-23878667D01*
X111128263Y-23854869D01*
X111130033Y-23820550D01*
X111131210Y-23777691D01*
X111131825Y-23728274D01*
X111131910Y-23674282D01*
X111131496Y-23617696D01*
X111130617Y-23560499D01*
X111129302Y-23504673D01*
X111127586Y-23452199D01*
X111125498Y-23405060D01*
X111123071Y-23365237D01*
X111120337Y-23334713D01*
X111117328Y-23315470D01*
X111116792Y-23313466D01*
X111094050Y-23253390D01*
X111064201Y-23203843D01*
X111026083Y-23163742D01*
X110978533Y-23132007D01*
X110920388Y-23107556D01*
X110884091Y-23096978D01*
X110873827Y-23094583D01*
X110862465Y-23092521D01*
X110848956Y-23090769D01*
X110832257Y-23089302D01*
X110811320Y-23088093D01*
X110785099Y-23087120D01*
X110752548Y-23086356D01*
X110712621Y-23085777D01*
X110664272Y-23085358D01*
X110606454Y-23085075D01*
X110538121Y-23084902D01*
X110458228Y-23084814D01*
X110370651Y-23084788D01*
X110278926Y-23084803D01*
X110199738Y-23084879D01*
X110132023Y-23085041D01*
X110074717Y-23085315D01*
X110026755Y-23085728D01*
X109987074Y-23086303D01*
X109954609Y-23087069D01*
X109928297Y-23088049D01*
X109907073Y-23089271D01*
X109889873Y-23090760D01*
X109875633Y-23092541D01*
X109863289Y-23094641D01*
X109851777Y-23097085D01*
X109850410Y-23097400D01*
X109786061Y-23116699D01*
X109732972Y-23142612D01*
X109689980Y-23176217D01*
X109655922Y-23218593D01*
X109629634Y-23270821D01*
X109614594Y-23316101D01*
X109610623Y-23331063D01*
X109607417Y-23345430D01*
X109604893Y-23360823D01*
X109602968Y-23378867D01*
X109601562Y-23401184D01*
X109600590Y-23429397D01*
X109599971Y-23465130D01*
X109599623Y-23510004D01*
X109599463Y-23565645D01*
X109599417Y-23615200D01*
X108943816Y-23615200D01*
X108943980Y-23584668D01*
X108944192Y-23553995D01*
X108944857Y-23467467D01*
X108945541Y-23393370D01*
X108946279Y-23330536D01*
X108947108Y-23277794D01*
X108948067Y-23233975D01*
X108949192Y-23197911D01*
X108950520Y-23168430D01*
X108952088Y-23144365D01*
X108953934Y-23124545D01*
X108956094Y-23107801D01*
X108958606Y-23092964D01*
X108958875Y-23091558D01*
X108982264Y-22997053D01*
X109014211Y-22912784D01*
X109055065Y-22838412D01*
X109105177Y-22773597D01*
X109164899Y-22718000D01*
X109234580Y-22671281D01*
X109314571Y-22633101D01*
X109405224Y-22603120D01*
X109481582Y-22585587D01*
X109505813Y-22581071D01*
X109529450Y-22577050D01*
X109553380Y-22573501D01*
X109578492Y-22570398D01*
X109605673Y-22567716D01*
X109635811Y-22565430D01*
X109669794Y-22563516D01*
X109708509Y-22561947D01*
X109752846Y-22560700D01*
X109803691Y-22559748D01*
X109861933Y-22559068D01*
X109928460Y-22558633D01*
X110004158Y-22558419D01*
X110089917Y-22558401D01*
X110186624Y-22558554D01*
G37*
G36*
X120241401Y-22558867D02*
G01*
X120374339Y-22559262D01*
X120387840Y-22559310D01*
X120503915Y-22559737D01*
X120607291Y-22560150D01*
X120698869Y-22560591D01*
X120779551Y-22561100D01*
X120850238Y-22561718D01*
X120911831Y-22562486D01*
X120965233Y-22563443D01*
X121011344Y-22564632D01*
X121051067Y-22566091D01*
X121085302Y-22567862D01*
X121114952Y-22569986D01*
X121140917Y-22572502D01*
X121164100Y-22575452D01*
X121185402Y-22578877D01*
X121205724Y-22582816D01*
X121225967Y-22587310D01*
X121247035Y-22592401D01*
X121269827Y-22598128D01*
X121274134Y-22599217D01*
X121366260Y-22627972D01*
X121447860Y-22665116D01*
X121519159Y-22710907D01*
X121580384Y-22765606D01*
X121631758Y-22829473D01*
X121673509Y-22902767D01*
X121705861Y-22985749D01*
X121729039Y-23078679D01*
X121737937Y-23133963D01*
X121739998Y-23156789D01*
X121741842Y-23191621D01*
X121743463Y-23236864D01*
X121744857Y-23290924D01*
X121746021Y-23352207D01*
X121746951Y-23419118D01*
X121747641Y-23490064D01*
X121748087Y-23563451D01*
X121748286Y-23637683D01*
X121748233Y-23711168D01*
X121747924Y-23782312D01*
X121747355Y-23849519D01*
X121746520Y-23911196D01*
X121745417Y-23965748D01*
X121744041Y-24011582D01*
X121742387Y-24047104D01*
X121740452Y-24070719D01*
X121740438Y-24070836D01*
X121724332Y-24164282D01*
X121699948Y-24250463D01*
X121667783Y-24328149D01*
X121628334Y-24396114D01*
X121588044Y-24446847D01*
X121536147Y-24496147D01*
X121477873Y-24538351D01*
X121412197Y-24573844D01*
X121338096Y-24603014D01*
X121254547Y-24626248D01*
X121160524Y-24643933D01*
X121055004Y-24656456D01*
X121027431Y-24658769D01*
X121006184Y-24659857D01*
X120972617Y-24660838D01*
X120927970Y-24661712D01*
X120873480Y-24662480D01*
X120810387Y-24663142D01*
X120739929Y-24663698D01*
X120663344Y-24664149D01*
X120581873Y-24664494D01*
X120496752Y-24664734D01*
X120409221Y-24664869D01*
X120320519Y-24664900D01*
X120231885Y-24664826D01*
X120144556Y-24664649D01*
X120059773Y-24664367D01*
X119978772Y-24663982D01*
X119902794Y-24663493D01*
X119833077Y-24662901D01*
X119770859Y-24662207D01*
X119717379Y-24661410D01*
X119673877Y-24660510D01*
X119641590Y-24659508D01*
X119622779Y-24658491D01*
X119510059Y-24645589D01*
X119408627Y-24625929D01*
X119317890Y-24599369D01*
X119241949Y-24568049D01*
X119171278Y-24528440D01*
X119110203Y-24481811D01*
X119058132Y-24427304D01*
X119014474Y-24364059D01*
X118978638Y-24291218D01*
X118950033Y-24207922D01*
X118928067Y-24113312D01*
X118927755Y-24111639D01*
X118925394Y-24096063D01*
X118923332Y-24075746D01*
X118921538Y-24049629D01*
X118919978Y-24016655D01*
X118918619Y-23975762D01*
X118917428Y-23925894D01*
X118916372Y-23865990D01*
X118915417Y-23794992D01*
X118914531Y-23711841D01*
X118914216Y-23678040D01*
X118913455Y-23577576D01*
X118913134Y-23489519D01*
X118913148Y-23483088D01*
X119575859Y-23483088D01*
X119576057Y-23537954D01*
X119576854Y-23596087D01*
X119578203Y-23655425D01*
X119580057Y-23713907D01*
X119582370Y-23769470D01*
X119585094Y-23820054D01*
X119588183Y-23863595D01*
X119591590Y-23898033D01*
X119595224Y-23921105D01*
X119613641Y-23981163D01*
X119640257Y-24030518D01*
X119675654Y-24069723D01*
X119720414Y-24099328D01*
X119775118Y-24119886D01*
X119813745Y-24128240D01*
X119825985Y-24129174D01*
X119850656Y-24130083D01*
X119886584Y-24130949D01*
X119932599Y-24131761D01*
X119987530Y-24132503D01*
X120050206Y-24133161D01*
X120119454Y-24133720D01*
X120194104Y-24134167D01*
X120272984Y-24134487D01*
X120337937Y-24134641D01*
X120435242Y-24134757D01*
X120519911Y-24134758D01*
X120592911Y-24134626D01*
X120655206Y-24134346D01*
X120707761Y-24133900D01*
X120751543Y-24133274D01*
X120787516Y-24132451D01*
X120816647Y-24131414D01*
X120839899Y-24130147D01*
X120858240Y-24128634D01*
X120872633Y-24126860D01*
X120880488Y-24125528D01*
X120940726Y-24108725D01*
X120990650Y-24083207D01*
X121030606Y-24048704D01*
X121060940Y-24004948D01*
X121074415Y-23974811D01*
X121082404Y-23951552D01*
X121088916Y-23927577D01*
X121094093Y-23901229D01*
X121098079Y-23870852D01*
X121101016Y-23834790D01*
X121103048Y-23791386D01*
X121104316Y-23738984D01*
X121104965Y-23675927D01*
X121105132Y-23618600D01*
X121105082Y-23555045D01*
X121104778Y-23503312D01*
X121104140Y-23461620D01*
X121103090Y-23428192D01*
X121101551Y-23401247D01*
X121099445Y-23379008D01*
X121096692Y-23359694D01*
X121093215Y-23341528D01*
X121092894Y-23340027D01*
X121074548Y-23275910D01*
X121048947Y-23222626D01*
X121015087Y-23179162D01*
X120971960Y-23144510D01*
X120918559Y-23117658D01*
X120853878Y-23097596D01*
X120850570Y-23096810D01*
X120839452Y-23094423D01*
X120827201Y-23092371D01*
X120812760Y-23090629D01*
X120795068Y-23089170D01*
X120773069Y-23087972D01*
X120745704Y-23087009D01*
X120711915Y-23086256D01*
X120670643Y-23085688D01*
X120620830Y-23085280D01*
X120561418Y-23085008D01*
X120491348Y-23084848D01*
X120409562Y-23084773D01*
X120336836Y-23084758D01*
X120245161Y-23084783D01*
X120166029Y-23084875D01*
X120098381Y-23085058D01*
X120041159Y-23085357D01*
X119993305Y-23085797D01*
X119953761Y-23086404D01*
X119921467Y-23087201D01*
X119895367Y-23088213D01*
X119874401Y-23089466D01*
X119857511Y-23090985D01*
X119843639Y-23092793D01*
X119831726Y-23094916D01*
X119823101Y-23096810D01*
X119757295Y-23117153D01*
X119702558Y-23145014D01*
X119658194Y-23181089D01*
X119623508Y-23226073D01*
X119597803Y-23280660D01*
X119581989Y-23337527D01*
X119579324Y-23358708D01*
X119577446Y-23391403D01*
X119576306Y-23433551D01*
X119575859Y-23483088D01*
X118913148Y-23483088D01*
X118913301Y-23412683D01*
X118914001Y-23345879D01*
X118915284Y-23287919D01*
X118917196Y-23237617D01*
X118919784Y-23193784D01*
X118923096Y-23155233D01*
X118927178Y-23120775D01*
X118932079Y-23089225D01*
X118937844Y-23059392D01*
X118939057Y-23053751D01*
X118963364Y-22966537D01*
X118996416Y-22888454D01*
X119038539Y-22819264D01*
X119090057Y-22758729D01*
X119151297Y-22706613D01*
X119222584Y-22662676D01*
X119304244Y-22626683D01*
X119396602Y-22598393D01*
X119499983Y-22577571D01*
X119609178Y-22564449D01*
X119632658Y-22562994D01*
X119667171Y-22561752D01*
X119713000Y-22560721D01*
X119770427Y-22559900D01*
X119839734Y-22559286D01*
X119921202Y-22558877D01*
X120015115Y-22558672D01*
X120121754Y-22558670D01*
X120241401Y-22558867D01*
G37*
G36*
X134411331Y-22557736D02*
G01*
X134500452Y-22557853D01*
X134587669Y-22558076D01*
X134671789Y-22558407D01*
X134751621Y-22558844D01*
X134825970Y-22559388D01*
X134893645Y-22560040D01*
X134953453Y-22560798D01*
X135004201Y-22561663D01*
X135044697Y-22562636D01*
X135073747Y-22563715D01*
X135087197Y-22564585D01*
X135192304Y-22577516D01*
X135286572Y-22596233D01*
X135371666Y-22621169D01*
X135449252Y-22652756D01*
X135474827Y-22665404D01*
X135507554Y-22683702D01*
X135536166Y-22703202D01*
X135564846Y-22727068D01*
X135597640Y-22758332D01*
X135625778Y-22787062D01*
X135646694Y-22810919D01*
X135663381Y-22834005D01*
X135678835Y-22860426D01*
X135694407Y-22890943D01*
X135724731Y-22962342D01*
X135747545Y-23038962D01*
X135763525Y-23123436D01*
X135771093Y-23189617D01*
X135773016Y-23220609D01*
X135774511Y-23264944D01*
X135775574Y-23322368D01*
X135776204Y-23392629D01*
X135776397Y-23475476D01*
X135776153Y-23570656D01*
X135775506Y-23673004D01*
X135774773Y-23762205D01*
X135774011Y-23839066D01*
X135773121Y-23904849D01*
X135772000Y-23960813D01*
X135770548Y-24008220D01*
X135768661Y-24048332D01*
X135766239Y-24082408D01*
X135763180Y-24111710D01*
X135759383Y-24137499D01*
X135754745Y-24161036D01*
X135749166Y-24183582D01*
X135742544Y-24206398D01*
X135734777Y-24230745D01*
X135729224Y-24247514D01*
X135696531Y-24327541D01*
X135654737Y-24398184D01*
X135603454Y-24459782D01*
X135542291Y-24512671D01*
X135470860Y-24557188D01*
X135388771Y-24593670D01*
X135295772Y-24622418D01*
X135271549Y-24628521D01*
X135249148Y-24633951D01*
X135227662Y-24638749D01*
X135206181Y-24642955D01*
X135183797Y-24646611D01*
X135159601Y-24649758D01*
X135132685Y-24652435D01*
X135102139Y-24654684D01*
X135067055Y-24656546D01*
X135026525Y-24658061D01*
X134979640Y-24659270D01*
X134925491Y-24660213D01*
X134863169Y-24660933D01*
X134791766Y-24661468D01*
X134710373Y-24661861D01*
X134618082Y-24662151D01*
X134513984Y-24662380D01*
X134400343Y-24662584D01*
X134304488Y-24662723D01*
X134211914Y-24662808D01*
X134123599Y-24662842D01*
X134040522Y-24662825D01*
X133963661Y-24662761D01*
X133893995Y-24662649D01*
X133832501Y-24662493D01*
X133780160Y-24662294D01*
X133737948Y-24662054D01*
X133706844Y-24661775D01*
X133687827Y-24661458D01*
X133682886Y-24661269D01*
X133562849Y-24649221D01*
X133454169Y-24629747D01*
X133356796Y-24602824D01*
X133270679Y-24568433D01*
X133195768Y-24526552D01*
X133132011Y-24477159D01*
X133079359Y-24420235D01*
X133067955Y-24404866D01*
X133036021Y-24355361D01*
X133009976Y-24304310D01*
X132988444Y-24248346D01*
X132970045Y-24184108D01*
X132960376Y-24142241D01*
X132957461Y-24127968D01*
X132954964Y-24113534D01*
X132952843Y-24097751D01*
X132951055Y-24079435D01*
X132949559Y-24057398D01*
X132948311Y-24030455D01*
X132947269Y-23997420D01*
X132946391Y-23957106D01*
X132945634Y-23908329D01*
X132944955Y-23849900D01*
X132944312Y-23780636D01*
X132943663Y-23699349D01*
X132943439Y-23669604D01*
X132942787Y-23562345D01*
X132942707Y-23522408D01*
X133593832Y-23522408D01*
X133593950Y-23584597D01*
X133594647Y-23662967D01*
X133595938Y-23729272D01*
X133597912Y-23785038D01*
X133600659Y-23831792D01*
X133604269Y-23871061D01*
X133608831Y-23904371D01*
X133614436Y-23933249D01*
X133614467Y-23933383D01*
X133633173Y-23989986D01*
X133661517Y-24037069D01*
X133699640Y-24074764D01*
X133747682Y-24103202D01*
X133805781Y-24122514D01*
X133818577Y-24125284D01*
X133835677Y-24127279D01*
X133864989Y-24129063D01*
X133905126Y-24130635D01*
X133954701Y-24131996D01*
X134012327Y-24133144D01*
X134076617Y-24134080D01*
X134146183Y-24134804D01*
X134219638Y-24135314D01*
X134295596Y-24135610D01*
X134372669Y-24135693D01*
X134449469Y-24135561D01*
X134524610Y-24135215D01*
X134596705Y-24134653D01*
X134664366Y-24133876D01*
X134726206Y-24132883D01*
X134780838Y-24131675D01*
X134826876Y-24130249D01*
X134862931Y-24128607D01*
X134887616Y-24126747D01*
X134896146Y-24125575D01*
X134945877Y-24113585D01*
X134985829Y-24097876D01*
X135019665Y-24076789D01*
X135038167Y-24061224D01*
X135068367Y-24024868D01*
X135092718Y-23977436D01*
X135110489Y-23920451D01*
X135114235Y-23902731D01*
X135119695Y-23865247D01*
X135123914Y-23818009D01*
X135126918Y-23763233D01*
X135128734Y-23703134D01*
X135129389Y-23639929D01*
X135128910Y-23575831D01*
X135127323Y-23513058D01*
X135124655Y-23453825D01*
X135120934Y-23400346D01*
X135116185Y-23354838D01*
X135110436Y-23319517D01*
X135107020Y-23305775D01*
X135084844Y-23247725D01*
X135055380Y-23199857D01*
X135017515Y-23161175D01*
X134970136Y-23130685D01*
X134912132Y-23107392D01*
X134873274Y-23096810D01*
X134862202Y-23094432D01*
X134850006Y-23092387D01*
X134835633Y-23090649D01*
X134818030Y-23089195D01*
X134796142Y-23088001D01*
X134768916Y-23087041D01*
X134735298Y-23086291D01*
X134694235Y-23085727D01*
X134644672Y-23085325D01*
X134585556Y-23085060D01*
X134515834Y-23084908D01*
X134434452Y-23084844D01*
X134356139Y-23084841D01*
X134263561Y-23084888D01*
X134183546Y-23085008D01*
X134115055Y-23085223D01*
X134057050Y-23085558D01*
X134008494Y-23086035D01*
X133968347Y-23086678D01*
X133935572Y-23087508D01*
X133909131Y-23088550D01*
X133887985Y-23089825D01*
X133871095Y-23091358D01*
X133857425Y-23093172D01*
X133845935Y-23095288D01*
X133841629Y-23096245D01*
X133775301Y-23116939D01*
X133719977Y-23145604D01*
X133675668Y-23182236D01*
X133642381Y-23226827D01*
X133635482Y-23239828D01*
X133624084Y-23264544D01*
X133614887Y-23288706D01*
X133607675Y-23314104D01*
X133602232Y-23342534D01*
X133598342Y-23375786D01*
X133595790Y-23415654D01*
X133594358Y-23463931D01*
X133593832Y-23522408D01*
X132942707Y-23522408D01*
X132942598Y-23467579D01*
X132942988Y-23384202D01*
X132944070Y-23311113D01*
X132945961Y-23247206D01*
X132948773Y-23191379D01*
X132952621Y-23142529D01*
X132957620Y-23099552D01*
X132963884Y-23061344D01*
X132971527Y-23026803D01*
X132980664Y-22994825D01*
X132991410Y-22964307D01*
X133003879Y-22934145D01*
X133018184Y-22903236D01*
X133024186Y-22890943D01*
X133041196Y-22857868D01*
X133056738Y-22831814D01*
X133073806Y-22808683D01*
X133095394Y-22784373D01*
X133121247Y-22758014D01*
X133153137Y-22727446D01*
X133180516Y-22704379D01*
X133207444Y-22685755D01*
X133237979Y-22668513D01*
X133244252Y-22665278D01*
X133316197Y-22632827D01*
X133393078Y-22606707D01*
X133477141Y-22586328D01*
X133570633Y-22571099D01*
X133627503Y-22564644D01*
X133646443Y-22563483D01*
X133677791Y-22562429D01*
X133720355Y-22561481D01*
X133772942Y-22560639D01*
X133834358Y-22559903D01*
X133903412Y-22559274D01*
X133978910Y-22558751D01*
X134059661Y-22558335D01*
X134144471Y-22558025D01*
X134232148Y-22557822D01*
X134321498Y-22557726D01*
X134411331Y-22557736D01*
G37*
G36*
X113517599Y-22584959D02*
G01*
X113658635Y-22584966D01*
X113786761Y-22584990D01*
X113902666Y-22585051D01*
X114007041Y-22585169D01*
X114100576Y-22585364D01*
X114183962Y-22585655D01*
X114257888Y-22586063D01*
X114323046Y-22586608D01*
X114380125Y-22587309D01*
X114429815Y-22588188D01*
X114472808Y-22589263D01*
X114509793Y-22590555D01*
X114541461Y-22592085D01*
X114568502Y-22593871D01*
X114591606Y-22595934D01*
X114611464Y-22598294D01*
X114628766Y-22600971D01*
X114644202Y-22603985D01*
X114658462Y-22607356D01*
X114672238Y-22611105D01*
X114686218Y-22615250D01*
X114699192Y-22619227D01*
X114774884Y-22648846D01*
X114841135Y-22688168D01*
X114897755Y-22737012D01*
X114944553Y-22795196D01*
X114981341Y-22862538D01*
X114998210Y-22906302D01*
X115009239Y-22942242D01*
X115018021Y-22978076D01*
X115024739Y-23015793D01*
X115029579Y-23057379D01*
X115032723Y-23104821D01*
X115034357Y-23160108D01*
X115034665Y-23225225D01*
X115033986Y-23292174D01*
X115033015Y-23350564D01*
X115031955Y-23397287D01*
X115030670Y-23434278D01*
X115029024Y-23463472D01*
X115026881Y-23486804D01*
X115024105Y-23506208D01*
X115020561Y-23523619D01*
X115016615Y-23539129D01*
X114992155Y-23607939D01*
X114958566Y-23667222D01*
X114915297Y-23717535D01*
X114861800Y-23759435D01*
X114797523Y-23793476D01*
X114745978Y-23812877D01*
X114688190Y-23831675D01*
X114743394Y-23847613D01*
X114812382Y-23872424D01*
X114870644Y-23904303D01*
X114918750Y-23943978D01*
X114957270Y-23992176D01*
X114986772Y-24049625D01*
X115007826Y-24117053D01*
X115021002Y-24195188D01*
X115021897Y-24203505D01*
X115023857Y-24229700D01*
X115025611Y-24266732D01*
X115027081Y-24311838D01*
X115028187Y-24362254D01*
X115028854Y-24415216D01*
X115029018Y-24455786D01*
X115029018Y-24638680D01*
X114713599Y-24638680D01*
X114398181Y-24638680D01*
X114394679Y-24463566D01*
X114393221Y-24402312D01*
X114391396Y-24352786D01*
X114388962Y-24313115D01*
X114385680Y-24281428D01*
X114381309Y-24255852D01*
X114375608Y-24234514D01*
X114368338Y-24215542D01*
X114360831Y-24200046D01*
X114335424Y-24165655D01*
X114299043Y-24138910D01*
X114251545Y-24119735D01*
X114192790Y-24108052D01*
X114191076Y-24107843D01*
X114173166Y-24106573D01*
X114142515Y-24105466D01*
X114099981Y-24104531D01*
X114046423Y-24103775D01*
X113982700Y-24103205D01*
X113909671Y-24102829D01*
X113828193Y-24102656D01*
X113739127Y-24102691D01*
X113643330Y-24102944D01*
X113638308Y-24102962D01*
X113141869Y-24104838D01*
X113140091Y-24375159D01*
X113138313Y-24645481D01*
X112825566Y-24645481D01*
X112512819Y-24645481D01*
X112512819Y-23615200D01*
X112512819Y-23087496D01*
X113138469Y-23087496D01*
X113138469Y-23342847D01*
X113138469Y-23598198D01*
X113676854Y-23598198D01*
X113796016Y-23598097D01*
X113901589Y-23597792D01*
X113993586Y-23597285D01*
X114072016Y-23596574D01*
X114136892Y-23595660D01*
X114188225Y-23594542D01*
X114226026Y-23593220D01*
X114250307Y-23591695D01*
X114257974Y-23590756D01*
X114308781Y-23576501D01*
X114349637Y-23553080D01*
X114380790Y-23520327D01*
X114392973Y-23500071D01*
X114400460Y-23485082D01*
X114405869Y-23472225D01*
X114409538Y-23458937D01*
X114411805Y-23442653D01*
X114413007Y-23420811D01*
X114413483Y-23390847D01*
X114413569Y-23350196D01*
X114413569Y-23343659D01*
X114413473Y-23300971D01*
X114412982Y-23269302D01*
X114411795Y-23246073D01*
X114409610Y-23228702D01*
X114406125Y-23214609D01*
X114401037Y-23201212D01*
X114395471Y-23188962D01*
X114376594Y-23157045D01*
X114353417Y-23134618D01*
X114349337Y-23131801D01*
X114338939Y-23124929D01*
X114329233Y-23118901D01*
X114319298Y-23113657D01*
X114308215Y-23109139D01*
X114295063Y-23105288D01*
X114278921Y-23102044D01*
X114258868Y-23099349D01*
X114233985Y-23097143D01*
X114203350Y-23095367D01*
X114166042Y-23093963D01*
X114121142Y-23092872D01*
X114067729Y-23092033D01*
X114004882Y-23091389D01*
X113931680Y-23090881D01*
X113847203Y-23090448D01*
X113750531Y-23090033D01*
X113694413Y-23089801D01*
X113138469Y-23087496D01*
X112512819Y-23087496D01*
X112512819Y-22584919D01*
X113517599Y-22584959D01*
G37*
G36*
X116747853Y-22578251D02*
G01*
X116883034Y-22578278D01*
X117005352Y-22578332D01*
X117115545Y-22578435D01*
X117214352Y-22578605D01*
X117302511Y-22578865D01*
X117380760Y-22579234D01*
X117449838Y-22579733D01*
X117510482Y-22580383D01*
X117563432Y-22581204D01*
X117609425Y-22582217D01*
X117649199Y-22583443D01*
X117683493Y-22584901D01*
X117713045Y-22586613D01*
X117738594Y-22588600D01*
X117760877Y-22590881D01*
X117780633Y-22593477D01*
X117798600Y-22596410D01*
X117815516Y-22599699D01*
X117832120Y-22603365D01*
X117849150Y-22607428D01*
X117856175Y-22609152D01*
X117945605Y-22637109D01*
X118025263Y-22674468D01*
X118095073Y-22721156D01*
X118154958Y-22777098D01*
X118204842Y-22842221D01*
X118244647Y-22916450D01*
X118274297Y-22999711D01*
X118278829Y-23016753D01*
X118287147Y-23052712D01*
X118293738Y-23088802D01*
X118298776Y-23127170D01*
X118302430Y-23169962D01*
X118304874Y-23219326D01*
X118306279Y-23277410D01*
X118306817Y-23346361D01*
X118306836Y-23366802D01*
X118305967Y-23452657D01*
X118303180Y-23526934D01*
X118298141Y-23591564D01*
X118290517Y-23648478D01*
X118279973Y-23699605D01*
X118266175Y-23746876D01*
X118248791Y-23792222D01*
X118227487Y-23837573D01*
X118224434Y-23843526D01*
X118180918Y-23913577D01*
X118127735Y-23975110D01*
X118066166Y-24027092D01*
X117997491Y-24068491D01*
X117922990Y-24098276D01*
X117900612Y-24104559D01*
X117884198Y-24108426D01*
X117866493Y-24111856D01*
X117846633Y-24114877D01*
X117823756Y-24117513D01*
X117796998Y-24119790D01*
X117765496Y-24121734D01*
X117728386Y-24123370D01*
X117684805Y-24124724D01*
X117633889Y-24125821D01*
X117574776Y-24126688D01*
X117506602Y-24127349D01*
X117428503Y-24127831D01*
X117339617Y-24128158D01*
X117239079Y-24128357D01*
X117126027Y-24128453D01*
X117094680Y-24128465D01*
X116463931Y-24128640D01*
X116463931Y-24387060D01*
X116463931Y-24645481D01*
X116152239Y-24645481D01*
X116088398Y-24645385D01*
X116028762Y-24645110D01*
X115974701Y-24644676D01*
X115927587Y-24644103D01*
X115888791Y-24643409D01*
X115859685Y-24642616D01*
X115841638Y-24641742D01*
X115836014Y-24640947D01*
X115835498Y-24633747D01*
X115834998Y-24613690D01*
X115834518Y-24581521D01*
X115834061Y-24537985D01*
X115833631Y-24483825D01*
X115833230Y-24419787D01*
X115832862Y-24346614D01*
X115832531Y-24265051D01*
X115832238Y-24175843D01*
X115831989Y-24079734D01*
X115831785Y-23977469D01*
X115831631Y-23869791D01*
X115831529Y-23757446D01*
X115831483Y-23641178D01*
X115831481Y-23607266D01*
X115831481Y-23088158D01*
X116463931Y-23088158D01*
X116463931Y-23346739D01*
X116463931Y-23605319D01*
X116996072Y-23603459D01*
X117093631Y-23603113D01*
X117178521Y-23602786D01*
X117251678Y-23602451D01*
X117314033Y-23602079D01*
X117366520Y-23601642D01*
X117410073Y-23601115D01*
X117445624Y-23600468D01*
X117474108Y-23599674D01*
X117496456Y-23598706D01*
X117513604Y-23597536D01*
X117526483Y-23596136D01*
X117536027Y-23594480D01*
X117543170Y-23592538D01*
X117548845Y-23590284D01*
X117553985Y-23587690D01*
X117555417Y-23586920D01*
X117592368Y-23560763D01*
X117620818Y-23525911D01*
X117634841Y-23499591D01*
X117641159Y-23484164D01*
X117645670Y-23468107D01*
X117648762Y-23448530D01*
X117650824Y-23422544D01*
X117652244Y-23387260D01*
X117652821Y-23365734D01*
X117653260Y-23312624D01*
X117651312Y-23270548D01*
X117646426Y-23237062D01*
X117638054Y-23209724D01*
X117625642Y-23186092D01*
X117608642Y-23163721D01*
X117606809Y-23161619D01*
X117574006Y-23132621D01*
X117532916Y-23111515D01*
X117481759Y-23097440D01*
X117469964Y-23095361D01*
X117453720Y-23093886D01*
X117424464Y-23092562D01*
X117382786Y-23091399D01*
X117329274Y-23090403D01*
X117264517Y-23089583D01*
X117189104Y-23088946D01*
X117103623Y-23088502D01*
X117008664Y-23088257D01*
X116945068Y-23088209D01*
X116463931Y-23088158D01*
X115831481Y-23088158D01*
X115831481Y-22578118D01*
X116747853Y-22578251D01*
G37*
G36*
X123419178Y-22584959D02*
G01*
X123560215Y-22584966D01*
X123688340Y-22584990D01*
X123804245Y-22585051D01*
X123908620Y-22585169D01*
X124002155Y-22585364D01*
X124085541Y-22585655D01*
X124159468Y-22586063D01*
X124224625Y-22586608D01*
X124281704Y-22587309D01*
X124331395Y-22588188D01*
X124374388Y-22589263D01*
X124411373Y-22590555D01*
X124443041Y-22592085D01*
X124470082Y-22593871D01*
X124493186Y-22595934D01*
X124513044Y-22598294D01*
X124530346Y-22600971D01*
X124545782Y-22603985D01*
X124560042Y-22607356D01*
X124573817Y-22611105D01*
X124587798Y-22615250D01*
X124600771Y-22619227D01*
X124675995Y-22648486D01*
X124741253Y-22686974D01*
X124796643Y-22734773D01*
X124842267Y-22791967D01*
X124871227Y-22843339D01*
X124889393Y-22884130D01*
X124904172Y-22924493D01*
X124915825Y-22966290D01*
X124924611Y-23011385D01*
X124930792Y-23061643D01*
X124934629Y-23118926D01*
X124936382Y-23185099D01*
X124936313Y-23262025D01*
X124935697Y-23303971D01*
X124934147Y-23369362D01*
X124931891Y-23423291D01*
X124928605Y-23467890D01*
X124923963Y-23505293D01*
X124917640Y-23537633D01*
X124909310Y-23567043D01*
X124898650Y-23595657D01*
X124887306Y-23621390D01*
X124855825Y-23674434D01*
X124813696Y-23720585D01*
X124760446Y-23760207D01*
X124695608Y-23793664D01*
X124635403Y-23816128D01*
X124588429Y-23831288D01*
X124645332Y-23847716D01*
X124715382Y-23873263D01*
X124774431Y-23906540D01*
X124823026Y-23948092D01*
X124861714Y-23998464D01*
X124891043Y-24058201D01*
X124906910Y-24108238D01*
X124914486Y-24146054D01*
X124920551Y-24194977D01*
X124925137Y-24255528D01*
X124928277Y-24328227D01*
X124930006Y-24413595D01*
X124930389Y-24477167D01*
X124930597Y-24638680D01*
X124615299Y-24638680D01*
X124300000Y-24638680D01*
X124296292Y-24466967D01*
X124294583Y-24402726D01*
X124292325Y-24350328D01*
X124289241Y-24308018D01*
X124285052Y-24274040D01*
X124279480Y-24246639D01*
X124272246Y-24224058D01*
X124263072Y-24204544D01*
X124251822Y-24186545D01*
X124223187Y-24154689D01*
X124185932Y-24130493D01*
X124152537Y-24116909D01*
X124145189Y-24114769D01*
X124136122Y-24112894D01*
X124124407Y-24111263D01*
X124109112Y-24109852D01*
X124089309Y-24108640D01*
X124064066Y-24107603D01*
X124032454Y-24106719D01*
X123993541Y-24105966D01*
X123946399Y-24105321D01*
X123890096Y-24104761D01*
X123823703Y-24104265D01*
X123746289Y-24103809D01*
X123656923Y-24103371D01*
X123578991Y-24103030D01*
X123040048Y-24100758D01*
X123040048Y-24373119D01*
X123040048Y-24645481D01*
X122727224Y-24645481D01*
X122414399Y-24645481D01*
X122414399Y-23615200D01*
X122414399Y-23088158D01*
X123033248Y-23088158D01*
X123033248Y-23343178D01*
X123033248Y-23598198D01*
X123572190Y-23598147D01*
X123681841Y-23598041D01*
X123781256Y-23597750D01*
X123870015Y-23597278D01*
X123947697Y-23596631D01*
X124013880Y-23595813D01*
X124068144Y-23594831D01*
X124110067Y-23593688D01*
X124139228Y-23592391D01*
X124155131Y-23590957D01*
X124184576Y-23584172D01*
X124214105Y-23574205D01*
X124230834Y-23566563D01*
X124259616Y-23547280D01*
X124281528Y-23523526D01*
X124297431Y-23493368D01*
X124308184Y-23454875D01*
X124314646Y-23406119D01*
X124316712Y-23373601D01*
X124317460Y-23305134D01*
X124312451Y-23248267D01*
X124301027Y-23201987D01*
X124282527Y-23165284D01*
X124256292Y-23137147D01*
X124221662Y-23116564D01*
X124177979Y-23102525D01*
X124135113Y-23095208D01*
X124116929Y-23093857D01*
X124085904Y-23092626D01*
X124042798Y-23091525D01*
X123988370Y-23090563D01*
X123923379Y-23089750D01*
X123848587Y-23089093D01*
X123764751Y-23088604D01*
X123672633Y-23088290D01*
X123572991Y-23088161D01*
X123555367Y-23088158D01*
X123033248Y-23088158D01*
X122414399Y-23088158D01*
X122414399Y-22584919D01*
X123419178Y-22584959D01*
G37*
G36*
X127916032Y-23551921D02*
G01*
X127975176Y-23659787D01*
X128032881Y-23765034D01*
X128088775Y-23866986D01*
X128142487Y-23964965D01*
X128193647Y-24058295D01*
X128241883Y-24146298D01*
X128286824Y-24228296D01*
X128328100Y-24303613D01*
X128365338Y-24371572D01*
X128398168Y-24431496D01*
X128426219Y-24482706D01*
X128449119Y-24524527D01*
X128466498Y-24556281D01*
X128477985Y-24577290D01*
X128482490Y-24585553D01*
X128515105Y-24645603D01*
X128162864Y-24643842D01*
X127810624Y-24642080D01*
X127713145Y-24460166D01*
X127615666Y-24278252D01*
X126975255Y-24278252D01*
X126334844Y-24278252D01*
X126240829Y-24461866D01*
X126146814Y-24645481D01*
X125793355Y-24645481D01*
X125439897Y-24645481D01*
X125477347Y-24575775D01*
X125484746Y-24562041D01*
X125498241Y-24537036D01*
X125517455Y-24501456D01*
X125542014Y-24455993D01*
X125571542Y-24401342D01*
X125605665Y-24338197D01*
X125644007Y-24267251D01*
X125686195Y-24189198D01*
X125731851Y-24104732D01*
X125780603Y-24014547D01*
X125832073Y-23919337D01*
X125880688Y-23829416D01*
X126576213Y-23829416D01*
X126978025Y-23829416D01*
X127379837Y-23829416D01*
X127344966Y-23763111D01*
X127281764Y-23643056D01*
X127224695Y-23534907D01*
X127173661Y-23438480D01*
X127128563Y-23353593D01*
X127089302Y-23280061D01*
X127055779Y-23217702D01*
X127027895Y-23166332D01*
X127005552Y-23125767D01*
X126988651Y-23095825D01*
X126977094Y-23076322D01*
X126970780Y-23067075D01*
X126969535Y-23066260D01*
X126965683Y-23072960D01*
X126956291Y-23090479D01*
X126942022Y-23117536D01*
X126923540Y-23152847D01*
X126901509Y-23195127D01*
X126876590Y-23243093D01*
X126849448Y-23295462D01*
X126820747Y-23350950D01*
X126791148Y-23408273D01*
X126761316Y-23466148D01*
X126731914Y-23523291D01*
X126703605Y-23578419D01*
X126677052Y-23630248D01*
X126652919Y-23677494D01*
X126631869Y-23718874D01*
X126614565Y-23753105D01*
X126612953Y-23756311D01*
X126576213Y-23829416D01*
X125880688Y-23829416D01*
X125885889Y-23819796D01*
X125941673Y-23716617D01*
X125999053Y-23610495D01*
X126035118Y-23543794D01*
X126555440Y-22581518D01*
X126968815Y-22579929D01*
X127382190Y-22578340D01*
X127916032Y-23551921D01*
G37*
G36*
X131003475Y-22833138D02*
G01*
X131003475Y-23088158D01*
X130561441Y-23088158D01*
X130119406Y-23088158D01*
X130119406Y-23866819D01*
X130119406Y-24645481D01*
X129803181Y-24645481D01*
X129486956Y-24645481D01*
X129486956Y-23866819D01*
X129486956Y-23088158D01*
X129041521Y-23088158D01*
X128596086Y-23088158D01*
X128596086Y-22833138D01*
X128596086Y-22578118D01*
X129799781Y-22578118D01*
X131003475Y-22578118D01*
X131003475Y-22833138D01*
G37*
G36*
X132227572Y-23611799D02*
G01*
X132227572Y-24645481D01*
X131911347Y-24645481D01*
X131595122Y-24645481D01*
X131595122Y-23611799D01*
X131595122Y-22578118D01*
X131911347Y-22578118D01*
X132227572Y-22578118D01*
X132227572Y-23611799D01*
G37*
G36*
X138024788Y-23322884D02*
G01*
X138094762Y-23411166D01*
X138162456Y-23496520D01*
X138227388Y-23578338D01*
X138289073Y-23656012D01*
X138347026Y-23728934D01*
X138400764Y-23796496D01*
X138449801Y-23858090D01*
X138493653Y-23913107D01*
X138531837Y-23960941D01*
X138563868Y-24000981D01*
X138589261Y-24032622D01*
X138607533Y-24055253D01*
X138618198Y-24068268D01*
X138620899Y-24071345D01*
X138621743Y-24065203D01*
X138622544Y-24046211D01*
X138623296Y-24015120D01*
X138623993Y-23972682D01*
X138624630Y-23919646D01*
X138625200Y-23856765D01*
X138625696Y-23784789D01*
X138626114Y-23704469D01*
X138626447Y-23616556D01*
X138626689Y-23521802D01*
X138626833Y-23420958D01*
X138626876Y-23326578D01*
X138626876Y-22578118D01*
X138943101Y-22578118D01*
X139259325Y-22578118D01*
X139259325Y-23611844D01*
X139259325Y-24645570D01*
X138768505Y-24643825D01*
X138277685Y-24642080D01*
X137685520Y-23894788D01*
X137093355Y-23147496D01*
X137089225Y-23728175D01*
X137088570Y-23820692D01*
X137087923Y-23912787D01*
X137087294Y-24003057D01*
X137086692Y-24090097D01*
X137086127Y-24172504D01*
X137085609Y-24248872D01*
X137085146Y-24317797D01*
X137084750Y-24377875D01*
X137084428Y-24427702D01*
X137084191Y-24465874D01*
X137084125Y-24477167D01*
X137083154Y-24645481D01*
X136766929Y-24645481D01*
X136450704Y-24645481D01*
X136450704Y-23611799D01*
X136450704Y-22578118D01*
X136942679Y-22578118D01*
X137434654Y-22578118D01*
X138024788Y-23322884D01*
G37*
G36*
X107821441Y-17505791D02*
G01*
X107952593Y-17505964D01*
X108095823Y-17506224D01*
X108251815Y-17506563D01*
X108289687Y-17506651D01*
X108441391Y-17507010D01*
X108580183Y-17507354D01*
X108706754Y-17507699D01*
X108821794Y-17508064D01*
X108925992Y-17508464D01*
X109020038Y-17508918D01*
X109104623Y-17509442D01*
X109180435Y-17510054D01*
X109248165Y-17510770D01*
X109308502Y-17511607D01*
X109362137Y-17512583D01*
X109409759Y-17513715D01*
X109452058Y-17515020D01*
X109489724Y-17516515D01*
X109523446Y-17518218D01*
X109553916Y-17520144D01*
X109581822Y-17522312D01*
X109607854Y-17524738D01*
X109632702Y-17527440D01*
X109657056Y-17530434D01*
X109681606Y-17533739D01*
X109707042Y-17537370D01*
X109734053Y-17541345D01*
X109743183Y-17542699D01*
X109885505Y-17567802D01*
X110016005Y-17599236D01*
X110134993Y-17637181D01*
X110242777Y-17681815D01*
X110339667Y-17733319D01*
X110425972Y-17791872D01*
X110502001Y-17857655D01*
X110568063Y-17930846D01*
X110624468Y-18011626D01*
X110659716Y-18075477D01*
X110689663Y-18141360D01*
X110715160Y-18210245D01*
X110736477Y-18283598D01*
X110753887Y-18362881D01*
X110767661Y-18449559D01*
X110778070Y-18545095D01*
X110785386Y-18650954D01*
X110789881Y-18768598D01*
X110790121Y-18778319D01*
X110794450Y-18960233D01*
X110172144Y-18960233D01*
X109549837Y-18960233D01*
X109545461Y-18897328D01*
X109535868Y-18817945D01*
X109518484Y-18748941D01*
X109492706Y-18689699D01*
X109457934Y-18639601D01*
X109413566Y-18598030D01*
X109359000Y-18564369D01*
X109293634Y-18538001D01*
X109216867Y-18518309D01*
X109167723Y-18509827D01*
X109155654Y-18508507D01*
X109137877Y-18507316D01*
X109113801Y-18506250D01*
X109082833Y-18505303D01*
X109044384Y-18504470D01*
X108997860Y-18503745D01*
X108942672Y-18503123D01*
X108878228Y-18502598D01*
X108803936Y-18502166D01*
X108719206Y-18501821D01*
X108623446Y-18501557D01*
X108516064Y-18501369D01*
X108396470Y-18501252D01*
X108264072Y-18501201D01*
X108214881Y-18501197D01*
X108085485Y-18501207D01*
X107968947Y-18501243D01*
X107864523Y-18501315D01*
X107771469Y-18501431D01*
X107689043Y-18501602D01*
X107616502Y-18501836D01*
X107553100Y-18502143D01*
X107498096Y-18502532D01*
X107450746Y-18503012D01*
X107410306Y-18503593D01*
X107376033Y-18504284D01*
X107347184Y-18505094D01*
X107323015Y-18506032D01*
X107302783Y-18507109D01*
X107285744Y-18508332D01*
X107271155Y-18509712D01*
X107258272Y-18511258D01*
X107246353Y-18512979D01*
X107244004Y-18513347D01*
X107153982Y-18530969D01*
X107075790Y-18553706D01*
X107008424Y-18582172D01*
X106950877Y-18616984D01*
X106902146Y-18658756D01*
X106861226Y-18708103D01*
X106827110Y-18765641D01*
X106825036Y-18769818D01*
X106808998Y-18804222D01*
X106794997Y-18838558D01*
X106782889Y-18874001D01*
X106772527Y-18911727D01*
X106763768Y-18952913D01*
X106756464Y-18998734D01*
X106750472Y-19050367D01*
X106745645Y-19108986D01*
X106741839Y-19175769D01*
X106738909Y-19251890D01*
X106736709Y-19338527D01*
X106735094Y-19436854D01*
X106734322Y-19504276D01*
X106733427Y-19629026D01*
X106733386Y-19741066D01*
X106734230Y-19841264D01*
X106735989Y-19930485D01*
X106738694Y-20009598D01*
X106742373Y-20079469D01*
X106747059Y-20140963D01*
X106752780Y-20194949D01*
X106759568Y-20242293D01*
X106760252Y-20246372D01*
X106778628Y-20334131D01*
X106802593Y-20411372D01*
X106832881Y-20478683D01*
X106870225Y-20536650D01*
X106915357Y-20585862D01*
X106969010Y-20626906D01*
X107031918Y-20660370D01*
X107104813Y-20686841D01*
X107188429Y-20706908D01*
X107283498Y-20721157D01*
X107361414Y-20728284D01*
X107384047Y-20729380D01*
X107419004Y-20730380D01*
X107465163Y-20731284D01*
X107521401Y-20732091D01*
X107586594Y-20732802D01*
X107659621Y-20733417D01*
X107739359Y-20733936D01*
X107824685Y-20734360D01*
X107914476Y-20734688D01*
X108007609Y-20734920D01*
X108102962Y-20735057D01*
X108199412Y-20735099D01*
X108295836Y-20735045D01*
X108391112Y-20734897D01*
X108484116Y-20734653D01*
X108573727Y-20734315D01*
X108658821Y-20733882D01*
X108738276Y-20733355D01*
X108810968Y-20732733D01*
X108875776Y-20732017D01*
X108931576Y-20731207D01*
X108977246Y-20730302D01*
X109011663Y-20729304D01*
X109033704Y-20728211D01*
X109035058Y-20728107D01*
X109127968Y-20717785D01*
X109209208Y-20702509D01*
X109279932Y-20681855D01*
X109341297Y-20655399D01*
X109394456Y-20622716D01*
X109440564Y-20583383D01*
X109447072Y-20576749D01*
X109483664Y-20530475D01*
X109511748Y-20476446D01*
X109531606Y-20413759D01*
X109543519Y-20341508D01*
X109547768Y-20258789D01*
X109547786Y-20252650D01*
X109547786Y-20163985D01*
X108760624Y-20162256D01*
X107973462Y-20160528D01*
X107971711Y-19733794D01*
X107969960Y-19307060D01*
X109395179Y-19307060D01*
X110820399Y-19307060D01*
X110817555Y-20002415D01*
X110817065Y-20119870D01*
X110816582Y-20224647D01*
X110816069Y-20317671D01*
X110815488Y-20399865D01*
X110814799Y-20472153D01*
X110813963Y-20535458D01*
X110812943Y-20590705D01*
X110811700Y-20638816D01*
X110810195Y-20680716D01*
X110808389Y-20717328D01*
X110806245Y-20749577D01*
X110803722Y-20778385D01*
X110800784Y-20804676D01*
X110797391Y-20829374D01*
X110793504Y-20853404D01*
X110789086Y-20877687D01*
X110784097Y-20903149D01*
X110778851Y-20928988D01*
X110750480Y-21042221D01*
X110713597Y-21145157D01*
X110667859Y-21238145D01*
X110612925Y-21321535D01*
X110548455Y-21395675D01*
X110474107Y-21460915D01*
X110389539Y-21517604D01*
X110294410Y-21566091D01*
X110188380Y-21606725D01*
X110088067Y-21635692D01*
X110020675Y-21651427D01*
X109950847Y-21665258D01*
X109877244Y-21677319D01*
X109798526Y-21687745D01*
X109713354Y-21696672D01*
X109620388Y-21704234D01*
X109518289Y-21710567D01*
X109405719Y-21715805D01*
X109281336Y-21720083D01*
X109238923Y-21721269D01*
X109199886Y-21722107D01*
X109149187Y-21722875D01*
X109087819Y-21723572D01*
X109016771Y-21724200D01*
X108937036Y-21724757D01*
X108849603Y-21725246D01*
X108755463Y-21725665D01*
X108655609Y-21726016D01*
X108551031Y-21726298D01*
X108442719Y-21726513D01*
X108331665Y-21726660D01*
X108218861Y-21726739D01*
X108105296Y-21726751D01*
X107991962Y-21726697D01*
X107879849Y-21726577D01*
X107769950Y-21726390D01*
X107663255Y-21726137D01*
X107560755Y-21725820D01*
X107463440Y-21725437D01*
X107372303Y-21724989D01*
X107288333Y-21724477D01*
X107212523Y-21723901D01*
X107145862Y-21723261D01*
X107089343Y-21722558D01*
X107043955Y-21721792D01*
X107010691Y-21720962D01*
X106999090Y-21720532D01*
X106826450Y-21709461D01*
X106665545Y-21691874D01*
X106516133Y-21667705D01*
X106377973Y-21636888D01*
X106250826Y-21599357D01*
X106134449Y-21555046D01*
X106028604Y-21503887D01*
X105933048Y-21445816D01*
X105890889Y-21415561D01*
X105803097Y-21340607D01*
X105724251Y-21255670D01*
X105655040Y-21161575D01*
X105600866Y-21068399D01*
X105560869Y-20983663D01*
X105526962Y-20895855D01*
X105498657Y-20803082D01*
X105475471Y-20703448D01*
X105456917Y-20595059D01*
X105442509Y-20476022D01*
X105438746Y-20435949D01*
X105437258Y-20411895D01*
X105435900Y-20375715D01*
X105434670Y-20328508D01*
X105433570Y-20271370D01*
X105432598Y-20205398D01*
X105431754Y-20131690D01*
X105431039Y-20051343D01*
X105430452Y-19965453D01*
X105429992Y-19875119D01*
X105429661Y-19781437D01*
X105429457Y-19685504D01*
X105429381Y-19588418D01*
X105429432Y-19491275D01*
X105429609Y-19395174D01*
X105429914Y-19301210D01*
X105430346Y-19210482D01*
X105430904Y-19124085D01*
X105431588Y-19043119D01*
X105432398Y-18968679D01*
X105433335Y-18901862D01*
X105434397Y-18843767D01*
X105435585Y-18795489D01*
X105436899Y-18758127D01*
X105438337Y-18732778D01*
X105439022Y-18725615D01*
X105457443Y-18597194D01*
X105480796Y-18480109D01*
X105509581Y-18372838D01*
X105544295Y-18273856D01*
X105585438Y-18181643D01*
X105633508Y-18094675D01*
X105658523Y-18055348D01*
X105691720Y-18010358D01*
X105733566Y-17961428D01*
X105781028Y-17911582D01*
X105831072Y-17863845D01*
X105880665Y-17821244D01*
X105926774Y-17786802D01*
X105929901Y-17784703D01*
X106032844Y-17723611D01*
X106146542Y-17670225D01*
X106271105Y-17624511D01*
X106406644Y-17586433D01*
X106553267Y-17555958D01*
X106711085Y-17533052D01*
X106748332Y-17528918D01*
X106778743Y-17525826D01*
X106808952Y-17523000D01*
X106839640Y-17520428D01*
X106871489Y-17518102D01*
X106905182Y-17516012D01*
X106941401Y-17514147D01*
X106980829Y-17512499D01*
X107024148Y-17511056D01*
X107072039Y-17509809D01*
X107125186Y-17508749D01*
X107184271Y-17507865D01*
X107249976Y-17507148D01*
X107322984Y-17506587D01*
X107403977Y-17506174D01*
X107493636Y-17505897D01*
X107592645Y-17505748D01*
X107701686Y-17505716D01*
X107821441Y-17505791D01*
G37*
G36*
X122407599Y-19613072D02*
G01*
X122407599Y-21680493D01*
X121427009Y-21678770D01*
X120446420Y-21677047D01*
X119379729Y-20333941D01*
X119283573Y-20212871D01*
X119188729Y-20093453D01*
X119095609Y-19976210D01*
X119004631Y-19861665D01*
X118916210Y-19750342D01*
X118830761Y-19642763D01*
X118748699Y-19539452D01*
X118670439Y-19440931D01*
X118596399Y-19347723D01*
X118526992Y-19260351D01*
X118462634Y-19179338D01*
X118403741Y-19105208D01*
X118350728Y-19038483D01*
X118304010Y-18979685D01*
X118264004Y-18929339D01*
X118231124Y-18887968D01*
X118205786Y-18856093D01*
X118188405Y-18834238D01*
X118185846Y-18831023D01*
X118058656Y-18671210D01*
X118055256Y-20174129D01*
X118051856Y-21677047D01*
X117421106Y-21678782D01*
X116790356Y-21680518D01*
X116790356Y-19613120D01*
X116790356Y-17545722D01*
X117769297Y-17545722D01*
X118748238Y-17545722D01*
X119940368Y-19050051D01*
X121132498Y-20554380D01*
X121135898Y-19051751D01*
X121139299Y-17549122D01*
X121773449Y-17547387D01*
X122407599Y-17545652D01*
X122407599Y-19613072D01*
G37*
G36*
X135723559Y-18269945D02*
G01*
X135812516Y-18370306D01*
X135892904Y-18460959D01*
X135965166Y-18542385D01*
X136029741Y-18615064D01*
X136087071Y-18679478D01*
X136137598Y-18736108D01*
X136181761Y-18785436D01*
X136220002Y-18827941D01*
X136252762Y-18864105D01*
X136280482Y-18894410D01*
X136303603Y-18919337D01*
X136322566Y-18939365D01*
X136337811Y-18954978D01*
X136349781Y-18966655D01*
X136358915Y-18974878D01*
X136365655Y-18980128D01*
X136370442Y-18982886D01*
X136373717Y-18983634D01*
X136375920Y-18982851D01*
X136376524Y-18982301D01*
X136382294Y-18975891D01*
X136396579Y-18959905D01*
X136418856Y-18934930D01*
X136448603Y-18901553D01*
X136485295Y-18860363D01*
X136528411Y-18811947D01*
X136577427Y-18756892D01*
X136631820Y-18695785D01*
X136691067Y-18629215D01*
X136754645Y-18557768D01*
X136822031Y-18482032D01*
X136892702Y-18402595D01*
X136966136Y-18320044D01*
X137021253Y-18258078D01*
X137654847Y-17545722D01*
X138467287Y-17545722D01*
X138571193Y-17545767D01*
X138671244Y-17545900D01*
X138766606Y-17546115D01*
X138856447Y-17546406D01*
X138939934Y-17546767D01*
X139016233Y-17547193D01*
X139084512Y-17547677D01*
X139143937Y-17548215D01*
X139193676Y-17548801D01*
X139232896Y-17549428D01*
X139260764Y-17550091D01*
X139276446Y-17550785D01*
X139279727Y-17551285D01*
X139275212Y-17556780D01*
X139261955Y-17571844D01*
X139240384Y-17596003D01*
X139210930Y-17628782D01*
X139174023Y-17669708D01*
X139130093Y-17718307D01*
X139079570Y-17774105D01*
X139022884Y-17836629D01*
X138960464Y-17905405D01*
X138892742Y-17979958D01*
X138820145Y-18059815D01*
X138743106Y-18144502D01*
X138662053Y-18233546D01*
X138577417Y-18326472D01*
X138489627Y-18422806D01*
X138399114Y-18522075D01*
X138344290Y-18582176D01*
X138252387Y-18682945D01*
X138162972Y-18781055D01*
X138076472Y-18876033D01*
X137993316Y-18967405D01*
X137913934Y-19054698D01*
X137838753Y-19137440D01*
X137768204Y-19215156D01*
X137702715Y-19287373D01*
X137642714Y-19353618D01*
X137588630Y-19413418D01*
X137540893Y-19466299D01*
X137499931Y-19511788D01*
X137466172Y-19549412D01*
X137440046Y-19578697D01*
X137421982Y-19599170D01*
X137412408Y-19610358D01*
X137410917Y-19612415D01*
X137415804Y-19617679D01*
X137429768Y-19632208D01*
X137452369Y-19655553D01*
X137483168Y-19687262D01*
X137521723Y-19726885D01*
X137567596Y-19773971D01*
X137620346Y-19828070D01*
X137679533Y-19888729D01*
X137744716Y-19955500D01*
X137815457Y-20027931D01*
X137891315Y-20105571D01*
X137971851Y-20187970D01*
X138056623Y-20274676D01*
X138145192Y-20365240D01*
X138237118Y-20459210D01*
X138331962Y-20556136D01*
X138416045Y-20642044D01*
X138513070Y-20741184D01*
X138607560Y-20837776D01*
X138699074Y-20931367D01*
X138787173Y-21021505D01*
X138871416Y-21107740D01*
X138951364Y-21189619D01*
X139026575Y-21266690D01*
X139096609Y-21338502D01*
X139161027Y-21404603D01*
X139219387Y-21464541D01*
X139271251Y-21517864D01*
X139316176Y-21564122D01*
X139353724Y-21602861D01*
X139383454Y-21633631D01*
X139404925Y-21655980D01*
X139417698Y-21669455D01*
X139421391Y-21673605D01*
X139415030Y-21674774D01*
X139395126Y-21675834D01*
X139361674Y-21676784D01*
X139314668Y-21677625D01*
X139254102Y-21678356D01*
X139179971Y-21678977D01*
X139092269Y-21679490D01*
X138990990Y-21679893D01*
X138876129Y-21680186D01*
X138747680Y-21680370D01*
X138605637Y-21680445D01*
X138577546Y-21680447D01*
X137731421Y-21680447D01*
X137072361Y-20955088D01*
X136995028Y-20869973D01*
X136919946Y-20787330D01*
X136847649Y-20707747D01*
X136778674Y-20631815D01*
X136713554Y-20560122D01*
X136652825Y-20493257D01*
X136597022Y-20431810D01*
X136546679Y-20376369D01*
X136502331Y-20327523D01*
X136464514Y-20285862D01*
X136433762Y-20251974D01*
X136410610Y-20226449D01*
X136395594Y-20209875D01*
X136389500Y-20203125D01*
X136365698Y-20176521D01*
X135682502Y-20928484D01*
X134999306Y-21680447D01*
X134157482Y-21680447D01*
X134050926Y-21680401D01*
X133948380Y-21680266D01*
X133850651Y-21680047D01*
X133758544Y-21679751D01*
X133672868Y-21679383D01*
X133594428Y-21678948D01*
X133524031Y-21678453D01*
X133462485Y-21677902D01*
X133410595Y-21677302D01*
X133369169Y-21676657D01*
X133339014Y-21675974D01*
X133320936Y-21675259D01*
X133315657Y-21674599D01*
X133320344Y-21669246D01*
X133334110Y-21654626D01*
X133356518Y-21631192D01*
X133387130Y-21599393D01*
X133425507Y-21559679D01*
X133471213Y-21512501D01*
X133523808Y-21458309D01*
X133582854Y-21397554D01*
X133647914Y-21330685D01*
X133718550Y-21258152D01*
X133794322Y-21180407D01*
X133874794Y-21097900D01*
X133959528Y-21011080D01*
X134048084Y-20920398D01*
X134140025Y-20826304D01*
X134234913Y-20729249D01*
X134322340Y-20639872D01*
X134437493Y-20522178D01*
X134543507Y-20413813D01*
X134640754Y-20314388D01*
X134729607Y-20223511D01*
X134810438Y-20140790D01*
X134883620Y-20065835D01*
X134949526Y-19998255D01*
X135008528Y-19937658D01*
X135061000Y-19883653D01*
X135107313Y-19835849D01*
X135147841Y-19793856D01*
X135182956Y-19757281D01*
X135213031Y-19725734D01*
X135238439Y-19698824D01*
X135259551Y-19676159D01*
X135276742Y-19657348D01*
X135290383Y-19642000D01*
X135300848Y-19629725D01*
X135308508Y-19620130D01*
X135313738Y-19612825D01*
X135316908Y-19607419D01*
X135318393Y-19603521D01*
X135318564Y-19600738D01*
X135317795Y-19598681D01*
X135316457Y-19596958D01*
X135316261Y-19596738D01*
X135310471Y-19590360D01*
X135295960Y-19574414D01*
X135273170Y-19549385D01*
X135242543Y-19515758D01*
X135204519Y-19474016D01*
X135159540Y-19424645D01*
X135108048Y-19368129D01*
X135050485Y-19304952D01*
X134987291Y-19235599D01*
X134918908Y-19160555D01*
X134845777Y-19080303D01*
X134768341Y-18995329D01*
X134687040Y-18906116D01*
X134602317Y-18813150D01*
X134514611Y-18716915D01*
X134424366Y-18617896D01*
X134386084Y-18575893D01*
X134294958Y-18475901D01*
X134206218Y-18378513D01*
X134120304Y-18284212D01*
X134037656Y-18193480D01*
X133958713Y-18106802D01*
X133883914Y-18024658D01*
X133813700Y-17947534D01*
X133748509Y-17875910D01*
X133688780Y-17810270D01*
X133634954Y-17751098D01*
X133587469Y-17698875D01*
X133546765Y-17654084D01*
X133513281Y-17617209D01*
X133487457Y-17588732D01*
X133469732Y-17569137D01*
X133460545Y-17558905D01*
X133459336Y-17557513D01*
X133458451Y-17555743D01*
X133459220Y-17554158D01*
X133462348Y-17552750D01*
X133468539Y-17551507D01*
X133478498Y-17550420D01*
X133492930Y-17549477D01*
X133512538Y-17548669D01*
X133538028Y-17547986D01*
X133570104Y-17547416D01*
X133609470Y-17546950D01*
X133656832Y-17546578D01*
X133712893Y-17546288D01*
X133778358Y-17546072D01*
X133853931Y-17545918D01*
X133940318Y-17545816D01*
X134038222Y-17545757D01*
X134148349Y-17545728D01*
X134265867Y-17545722D01*
X135081731Y-17545722D01*
X135723559Y-18269945D01*
G37*
G36*
X116083101Y-18028560D02*
G01*
X116083101Y-18511398D01*
X114457773Y-18511398D01*
X112832445Y-18511398D01*
X112832445Y-18841224D01*
X112832445Y-19171050D01*
X114372766Y-19171050D01*
X115913087Y-19171050D01*
X115913087Y-19596083D01*
X115913087Y-20021117D01*
X114372766Y-20021117D01*
X112832445Y-20021117D01*
X112832445Y-20354343D01*
X112832445Y-20687569D01*
X114495176Y-20687569D01*
X116157906Y-20687569D01*
X116157906Y-21180608D01*
X116157906Y-21673647D01*
X113862726Y-21673647D01*
X111567545Y-21673647D01*
X111567545Y-19609684D01*
X111567545Y-17545722D01*
X113825323Y-17545722D01*
X116083101Y-17545722D01*
X116083101Y-18028560D01*
G37*
G36*
X127773221Y-18059162D02*
G01*
X127773221Y-18572603D01*
X126885751Y-18572603D01*
X125998281Y-18572603D01*
X125998281Y-20123125D01*
X125998281Y-21673647D01*
X125365832Y-21673647D01*
X124733382Y-21673647D01*
X124733382Y-20123125D01*
X124733382Y-18572603D01*
X123842512Y-18572603D01*
X122951641Y-18572603D01*
X122951641Y-18059162D01*
X122951641Y-17545722D01*
X125362431Y-17545722D01*
X127773221Y-17545722D01*
X127773221Y-18059162D01*
G37*
G36*
X132853221Y-18028560D02*
G01*
X132853221Y-18511398D01*
X131227828Y-18511398D01*
X129602434Y-18511398D01*
X129604200Y-18839524D01*
X129605965Y-19167649D01*
X131144587Y-19169364D01*
X132683208Y-19171079D01*
X132683208Y-19596083D01*
X132683208Y-20021087D01*
X131144587Y-20022802D01*
X129605965Y-20024517D01*
X129605965Y-20354343D01*
X129605965Y-20684169D01*
X131266996Y-20685883D01*
X132928027Y-20687597D01*
X132928027Y-21180622D01*
X132928027Y-21673647D01*
X130632846Y-21673647D01*
X128337666Y-21673647D01*
X128337666Y-19609684D01*
X128337666Y-17545722D01*
X130595443Y-17545722D01*
X132853221Y-17545722D01*
X132853221Y-18028560D01*
G37*
G36*
X81835966Y-21512522D02*
G01*
X81840205Y-21623999D01*
X81845787Y-21699940D01*
X81854662Y-21749208D01*
X81868777Y-21780671D01*
X81890080Y-21803193D01*
X81901831Y-21812260D01*
X81967303Y-21843784D01*
X82027346Y-21854658D01*
X82097005Y-21840536D01*
X82152862Y-21812260D01*
X82177823Y-21790854D01*
X82194765Y-21764289D01*
X82205636Y-21723699D01*
X82212385Y-21660218D01*
X82216958Y-21564981D01*
X82218727Y-21512522D01*
X82226934Y-21255182D01*
X82298102Y-21255182D01*
X82369269Y-21255182D01*
X82369133Y-21471659D01*
X82363594Y-21632692D01*
X82345010Y-21755183D01*
X82310090Y-21844103D01*
X82255543Y-21904422D01*
X82178076Y-21941111D01*
X82074399Y-21959139D01*
X82044875Y-21961262D01*
X81954047Y-21963750D01*
X81893682Y-21956146D01*
X81845962Y-21935115D01*
X81822896Y-21919686D01*
X81765408Y-21868469D01*
X81725604Y-21805627D01*
X81700805Y-21722770D01*
X81688333Y-21611505D01*
X81685423Y-21489025D01*
X81685423Y-21255182D01*
X81756591Y-21255182D01*
X81827758Y-21255182D01*
X81835966Y-21512522D01*
G37*
G36*
X83370616Y-21610427D02*
G01*
X83370616Y-21965672D01*
X83311145Y-21965672D01*
X83279843Y-21958070D01*
X83240280Y-21932148D01*
X83187306Y-21883229D01*
X83115776Y-21806638D01*
X83036386Y-21716109D01*
X82821096Y-21466546D01*
X82814191Y-21716109D01*
X82810879Y-21824098D01*
X82806706Y-21895338D01*
X82799616Y-21937473D01*
X82787550Y-21958146D01*
X82768453Y-21965001D01*
X82747027Y-21965672D01*
X82686769Y-21965672D01*
X82686769Y-21610427D01*
X82686769Y-21255182D01*
X82753933Y-21255272D01*
X82786535Y-21260501D01*
X82822028Y-21279726D01*
X82866598Y-21318386D01*
X82926431Y-21381922D01*
X83007716Y-21475772D01*
X83016481Y-21486111D01*
X83211866Y-21716860D01*
X83218798Y-21486021D01*
X83225730Y-21255182D01*
X83298173Y-21255182D01*
X83370616Y-21255182D01*
X83370616Y-21610427D01*
G37*
G36*
X83834654Y-21610427D02*
G01*
X83834654Y-21965672D01*
X83773596Y-21965672D01*
X83712539Y-21965672D01*
X83712539Y-21610427D01*
X83712539Y-21255182D01*
X83773596Y-21255182D01*
X83834654Y-21255182D01*
X83834654Y-21610427D01*
G37*
G36*
X84225166Y-21256538D02*
G01*
X84251809Y-21265309D01*
X84275345Y-21288552D01*
X84301150Y-21333325D01*
X84334598Y-21406685D01*
X84371811Y-21493862D01*
X84413385Y-21589895D01*
X84449895Y-21670453D01*
X84477168Y-21726566D01*
X84490425Y-21748807D01*
X84505182Y-21735726D01*
X84532817Y-21688242D01*
X84569497Y-21613681D01*
X84611391Y-21519366D01*
X84615300Y-21510127D01*
X84660528Y-21403756D01*
X84693386Y-21332051D01*
X84718886Y-21288175D01*
X84742037Y-21265295D01*
X84767849Y-21256576D01*
X84801333Y-21255182D01*
X84802188Y-21255182D01*
X84881654Y-21255182D01*
X84724500Y-21602002D01*
X84672663Y-21716875D01*
X84628030Y-21816687D01*
X84593653Y-21894540D01*
X84572583Y-21943537D01*
X84567346Y-21957247D01*
X84546196Y-21963336D01*
X84499258Y-21965672D01*
X84473692Y-21963680D01*
X84451403Y-21953902D01*
X84428711Y-21930633D01*
X84401943Y-21888169D01*
X84367419Y-21820804D01*
X84321465Y-21722836D01*
X84270302Y-21610427D01*
X84109436Y-21255182D01*
X84190044Y-21255182D01*
X84225166Y-21256538D01*
G37*
G36*
X85715231Y-21310689D02*
G01*
X85713498Y-21336895D01*
X85702055Y-21353199D01*
X85671532Y-21361949D01*
X85612562Y-21365497D01*
X85515776Y-21366193D01*
X85493949Y-21366196D01*
X85272667Y-21366196D01*
X85280247Y-21449457D01*
X85287827Y-21532717D01*
X85477106Y-21539202D01*
X85572217Y-21543230D01*
X85628595Y-21549380D01*
X85656341Y-21560858D01*
X85665552Y-21580874D01*
X85666385Y-21599325D01*
X85663668Y-21626372D01*
X85648783Y-21642859D01*
X85611633Y-21651994D01*
X85542117Y-21656986D01*
X85477106Y-21659449D01*
X85287827Y-21665934D01*
X85287827Y-21754745D01*
X85287827Y-21843556D01*
X85513741Y-21849940D01*
X85619526Y-21853413D01*
X85685744Y-21858228D01*
X85721659Y-21866890D01*
X85736534Y-21881902D01*
X85739632Y-21905767D01*
X85739654Y-21910998D01*
X85739654Y-21965672D01*
X85446577Y-21965672D01*
X85153500Y-21965672D01*
X85153500Y-21610427D01*
X85153500Y-21255182D01*
X85434366Y-21255182D01*
X85715231Y-21255182D01*
X85715231Y-21310689D01*
G37*
G36*
X86391244Y-21255763D02*
G01*
X86466394Y-21259084D01*
X86515881Y-21267515D01*
X86551295Y-21283425D01*
X86584226Y-21309184D01*
X86596340Y-21320083D01*
X86654467Y-21394693D01*
X86667731Y-21454402D01*
X86658823Y-21511911D01*
X86636727Y-21574438D01*
X86608387Y-21626865D01*
X86580748Y-21654073D01*
X86575517Y-21655172D01*
X86541459Y-21666070D01*
X86523391Y-21675330D01*
X86508981Y-21693401D01*
X86518149Y-21724659D01*
X86554359Y-21777906D01*
X86573504Y-21802656D01*
X86634014Y-21880026D01*
X86668060Y-21928001D01*
X86677139Y-21953595D01*
X86662752Y-21963821D01*
X86626399Y-21965693D01*
X86608364Y-21965672D01*
X86558283Y-21961829D01*
X86519544Y-21944576D01*
X86479782Y-21905328D01*
X86432503Y-21843556D01*
X86381772Y-21777389D01*
X86343345Y-21740697D01*
X86304345Y-21724907D01*
X86251894Y-21721444D01*
X86249081Y-21721441D01*
X86154846Y-21721441D01*
X86154846Y-21843556D01*
X86153261Y-21913494D01*
X86144884Y-21949910D01*
X86124282Y-21963671D01*
X86093789Y-21965672D01*
X86032731Y-21965672D01*
X86032731Y-21610427D01*
X86032731Y-21366196D01*
X86154846Y-21366196D01*
X86154846Y-21473510D01*
X86157962Y-21539283D01*
X86165876Y-21585088D01*
X86171128Y-21595625D01*
X86210961Y-21607774D01*
X86278943Y-21609439D01*
X86355949Y-21601308D01*
X86415307Y-21586835D01*
X86487069Y-21549931D01*
X86518090Y-21499145D01*
X86520818Y-21473245D01*
X86501800Y-21417676D01*
X86442301Y-21382572D01*
X86340645Y-21367122D01*
X86299640Y-21366196D01*
X86154846Y-21366196D01*
X86032731Y-21366196D01*
X86032731Y-21255182D01*
X86278840Y-21255182D01*
X86391244Y-21255763D01*
G37*
G36*
X87298920Y-21245209D02*
G01*
X87389345Y-21267117D01*
X87447457Y-21295254D01*
X87480320Y-21327376D01*
X87475680Y-21356405D01*
X87462235Y-21374109D01*
X87438817Y-21397712D01*
X87412024Y-21404068D01*
X87366249Y-21393421D01*
X87315737Y-21376393D01*
X87219873Y-21354291D01*
X87144832Y-21358667D01*
X87098152Y-21387467D01*
X87087361Y-21438570D01*
X87101957Y-21469550D01*
X87141266Y-21496451D01*
X87214949Y-21525010D01*
X87253885Y-21537464D01*
X87386758Y-21589341D01*
X87472968Y-21649321D01*
X87514257Y-21719562D01*
X87512368Y-21802221D01*
X87499165Y-21841047D01*
X87448824Y-21903139D01*
X87365162Y-21944316D01*
X87258945Y-21962779D01*
X87140942Y-21956727D01*
X87021918Y-21924359D01*
X87015760Y-21921864D01*
X86946552Y-21890518D01*
X86917730Y-21865671D01*
X86923945Y-21838227D01*
X86949556Y-21809288D01*
X86977077Y-21786881D01*
X87006861Y-21784880D01*
X87056596Y-21803813D01*
X87076836Y-21813090D01*
X87187899Y-21848964D01*
X87283246Y-21848127D01*
X87337353Y-21825437D01*
X87376391Y-21783753D01*
X87366804Y-21742837D01*
X87308521Y-21702609D01*
X87201471Y-21662987D01*
X87192809Y-21660426D01*
X87071393Y-21617804D01*
X86992434Y-21570834D01*
X86949557Y-21514049D01*
X86936389Y-21441978D01*
X86936385Y-21440437D01*
X86958885Y-21359101D01*
X87018695Y-21290092D01*
X87104278Y-21245998D01*
X87117767Y-21242505D01*
X87201234Y-21235860D01*
X87298920Y-21245209D01*
G37*
G36*
X87962154Y-21610427D02*
G01*
X87962154Y-21965672D01*
X87888885Y-21965672D01*
X87815616Y-21965672D01*
X87815616Y-21610427D01*
X87815616Y-21255182D01*
X87888885Y-21255182D01*
X87962154Y-21255182D01*
X87962154Y-21610427D01*
G37*
G36*
X88865808Y-21310689D02*
G01*
X88861849Y-21343632D01*
X88841643Y-21360066D01*
X88792700Y-21365670D01*
X88743692Y-21366196D01*
X88621577Y-21366196D01*
X88621577Y-21665934D01*
X88621577Y-21965672D01*
X88548308Y-21965672D01*
X88475039Y-21965672D01*
X88475039Y-21665934D01*
X88475039Y-21366196D01*
X88352923Y-21366196D01*
X88280449Y-21364396D01*
X88244293Y-21355212D01*
X88231965Y-21332965D01*
X88230808Y-21310689D01*
X88230808Y-21255182D01*
X88548308Y-21255182D01*
X88865808Y-21255182D01*
X88865808Y-21310689D01*
G37*
G36*
X89193524Y-21258203D02*
G01*
X89229421Y-21272605D01*
X89265219Y-21306393D01*
X89311252Y-21367575D01*
X89333459Y-21399500D01*
X89381780Y-21467971D01*
X89419786Y-21518863D01*
X89440573Y-21543005D01*
X89442100Y-21543818D01*
X89458474Y-21526462D01*
X89493623Y-21480488D01*
X89540618Y-21415038D01*
X89551465Y-21399500D01*
X89604658Y-21325729D01*
X89643638Y-21282448D01*
X89678582Y-21261673D01*
X89719664Y-21255420D01*
X89735381Y-21255182D01*
X89819036Y-21255182D01*
X89659922Y-21471490D01*
X89591716Y-21565346D01*
X89546434Y-21633032D01*
X89519391Y-21685010D01*
X89505901Y-21731741D01*
X89501278Y-21783687D01*
X89500808Y-21826735D01*
X89499637Y-21902514D01*
X89493130Y-21944112D01*
X89476796Y-21961749D01*
X89446145Y-21965641D01*
X89439750Y-21965672D01*
X89406448Y-21963007D01*
X89388167Y-21948200D01*
X89380416Y-21911033D01*
X89378706Y-21841287D01*
X89378692Y-21826735D01*
X89377394Y-21765413D01*
X89370376Y-21716333D01*
X89352953Y-21669033D01*
X89320438Y-21613051D01*
X89268146Y-21537926D01*
X89219578Y-21471490D01*
X89060464Y-21255182D01*
X89147193Y-21255182D01*
X89193524Y-21258203D01*
G37*
G36*
X90607732Y-17492329D02*
G01*
X90666459Y-17525509D01*
X90757463Y-17577713D01*
X90876366Y-17646411D01*
X91018791Y-17729068D01*
X91180358Y-17823155D01*
X91356691Y-17926137D01*
X91430231Y-17969168D01*
X91611195Y-18074985D01*
X91779103Y-18172919D01*
X91929581Y-18260437D01*
X92058258Y-18335009D01*
X92160762Y-18394103D01*
X92232722Y-18435188D01*
X92269764Y-18455731D01*
X92273825Y-18457630D01*
X92295711Y-18446022D01*
X92354171Y-18412923D01*
X92444732Y-18360918D01*
X92562927Y-18292593D01*
X92704283Y-18210533D01*
X92864332Y-18117324D01*
X93038603Y-18015552D01*
X93082533Y-17989856D01*
X93261305Y-17885361D01*
X93428403Y-17787899D01*
X93579094Y-17700214D01*
X93708647Y-17625051D01*
X93812327Y-17565155D01*
X93885403Y-17523270D01*
X93923143Y-17502141D01*
X93926104Y-17500613D01*
X93934669Y-17497923D01*
X93942046Y-17500810D01*
X93948322Y-17512299D01*
X93953582Y-17535418D01*
X93957915Y-17573191D01*
X93961405Y-17628644D01*
X93964139Y-17704804D01*
X93966204Y-17804696D01*
X93967686Y-17931346D01*
X93968671Y-18087780D01*
X93969246Y-18277025D01*
X93969496Y-18502105D01*
X93969510Y-18766047D01*
X93969402Y-19017469D01*
X93968573Y-20555794D01*
X93134687Y-21044255D01*
X92953455Y-21150341D01*
X92785025Y-21248788D01*
X92633816Y-21337027D01*
X92504247Y-21412483D01*
X92400736Y-21472586D01*
X92327704Y-21514763D01*
X92289568Y-21536441D01*
X92285104Y-21538786D01*
X92261833Y-21528471D01*
X92202074Y-21496479D01*
X92110286Y-21445345D01*
X91990929Y-21377605D01*
X91848460Y-21295794D01*
X91687337Y-21202449D01*
X91512020Y-21100105D01*
X91455132Y-21066739D01*
X91275229Y-20960971D01*
X91107469Y-20862086D01*
X90956456Y-20772813D01*
X90826789Y-20695886D01*
X90723072Y-20634036D01*
X90649906Y-20589994D01*
X90611891Y-20566492D01*
X90608140Y-20563939D01*
X90601587Y-20552146D01*
X90595930Y-20525473D01*
X90591107Y-20481091D01*
X90587061Y-20416171D01*
X90583730Y-20327884D01*
X90581056Y-20213401D01*
X90578979Y-20069893D01*
X90577439Y-19894532D01*
X90576378Y-19684487D01*
X90575735Y-19436930D01*
X90575704Y-19405340D01*
X91186239Y-19405340D01*
X91186484Y-19605240D01*
X91189622Y-19767416D01*
X91199542Y-19898540D01*
X91220131Y-20005285D01*
X91255279Y-20094322D01*
X91308874Y-20172324D01*
X91384805Y-20245962D01*
X91486962Y-20321910D01*
X91619233Y-20406839D01*
X91785506Y-20507422D01*
X91851695Y-20547103D01*
X91975723Y-20620855D01*
X92086581Y-20685508D01*
X92177575Y-20737260D01*
X92242011Y-20772309D01*
X92273195Y-20786855D01*
X92274215Y-20787035D01*
X92302006Y-20776038D01*
X92363597Y-20744325D01*
X92452062Y-20695700D01*
X92560478Y-20633967D01*
X92677196Y-20565723D01*
X92840306Y-20468685D01*
X92967757Y-20391120D01*
X93065191Y-20328785D01*
X93138247Y-20277439D01*
X93192564Y-20232841D01*
X93233783Y-20190750D01*
X93267544Y-20146924D01*
X93298791Y-20098267D01*
X93371615Y-19978521D01*
X93380272Y-19493503D01*
X93382871Y-19297935D01*
X93382642Y-19141870D01*
X93379159Y-19020458D01*
X93371999Y-18928851D01*
X93360735Y-18862199D01*
X93344944Y-18815653D01*
X93324201Y-18784364D01*
X93317569Y-18777787D01*
X93287118Y-18758606D01*
X93248052Y-18753030D01*
X93195264Y-18763063D01*
X93123643Y-18790713D01*
X93028083Y-18837985D01*
X92903475Y-18906884D01*
X92744710Y-18999417D01*
X92728142Y-19009226D01*
X92601717Y-19084047D01*
X92488122Y-19151062D01*
X92394143Y-19206286D01*
X92326562Y-19245735D01*
X92292164Y-19265422D01*
X92290421Y-19266354D01*
X92259284Y-19259969D01*
X92191865Y-19229823D01*
X92091775Y-19177782D01*
X91962621Y-19105713D01*
X91824932Y-19025518D01*
X91657177Y-18927778D01*
X91524261Y-18854545D01*
X91421530Y-18804194D01*
X91344331Y-18775102D01*
X91288009Y-18765645D01*
X91247911Y-18774199D01*
X91219381Y-18799140D01*
X91211282Y-18811415D01*
X91203078Y-18848008D01*
X91196308Y-18925018D01*
X91191140Y-19038471D01*
X91187743Y-19184393D01*
X91186282Y-19358810D01*
X91186239Y-19405340D01*
X90575704Y-19405340D01*
X90575450Y-19149033D01*
X90575423Y-19009981D01*
X90575568Y-18753836D01*
X90575986Y-18511141D01*
X90576653Y-18285477D01*
X90577546Y-18080426D01*
X90578640Y-17899569D01*
X90579911Y-17746489D01*
X90581336Y-17624767D01*
X90582891Y-17537985D01*
X90584550Y-17489724D01*
X90585662Y-17480707D01*
X90607732Y-17492329D01*
G37*
G36*
X80880502Y-18326460D02*
G01*
X81056689Y-18334379D01*
X81208176Y-18349315D01*
X81392346Y-18374216D01*
X81392346Y-18660154D01*
X81392346Y-18946091D01*
X81321305Y-18946091D01*
X81288228Y-18943540D01*
X81262130Y-18930924D01*
X81237291Y-18900796D01*
X81207988Y-18845710D01*
X81168499Y-18758221D01*
X81157421Y-18732841D01*
X81108117Y-18624812D01*
X81064169Y-18552023D01*
X81014626Y-18508079D01*
X80948540Y-18486584D01*
X80854962Y-18481144D01*
X80732923Y-18484922D01*
X80572690Y-18500245D01*
X80445900Y-18533645D01*
X80339263Y-18590278D01*
X80239488Y-18675302D01*
X80237748Y-18677049D01*
X80120746Y-18824288D01*
X80038843Y-18996465D01*
X79991004Y-19196494D01*
X79976169Y-19413236D01*
X79993817Y-19639916D01*
X80046510Y-19840310D01*
X80132500Y-20012455D01*
X80250042Y-20154386D01*
X80397391Y-20264139D01*
X80572800Y-20339753D01*
X80774524Y-20379262D01*
X80839053Y-20383744D01*
X81011136Y-20382261D01*
X81171754Y-20359679D01*
X81221385Y-20348638D01*
X81308238Y-20328462D01*
X81373885Y-20314150D01*
X81406673Y-20308217D01*
X81408342Y-20308302D01*
X81415058Y-20329714D01*
X81420553Y-20355251D01*
X81404525Y-20392430D01*
X81349435Y-20436541D01*
X81263399Y-20483023D01*
X81154537Y-20527314D01*
X81062635Y-20556394D01*
X80953508Y-20578002D01*
X80813947Y-20593121D01*
X80661969Y-20600911D01*
X80515589Y-20600531D01*
X80392823Y-20591140D01*
X80374910Y-20588475D01*
X80140912Y-20529546D01*
X79934239Y-20435912D01*
X79757221Y-20311018D01*
X79612188Y-20158312D01*
X79501470Y-19981240D01*
X79427397Y-19783247D01*
X79392300Y-19567780D01*
X79398508Y-19338285D01*
X79425538Y-19184331D01*
X79495245Y-18989059D01*
X79606558Y-18810556D01*
X79754107Y-18653420D01*
X79932522Y-18522248D01*
X80136434Y-18421637D01*
X80360474Y-18356185D01*
X80401591Y-18348648D01*
X80535882Y-18333580D01*
X80701209Y-18326189D01*
X80880502Y-18326460D01*
G37*
G36*
X82637729Y-19069137D02*
G01*
X82768757Y-19085912D01*
X82866715Y-19114285D01*
X82873991Y-19117660D01*
X82954641Y-19163798D01*
X83017309Y-19218206D01*
X83063735Y-19286433D01*
X83095661Y-19374030D01*
X83114827Y-19486548D01*
X83122974Y-19629537D01*
X83121842Y-19808548D01*
X83118912Y-19898620D01*
X83113713Y-20056468D01*
X83112924Y-20176372D01*
X83118277Y-20264727D01*
X83131506Y-20327929D01*
X83154345Y-20372372D01*
X83188527Y-20404451D01*
X83235786Y-20430562D01*
X83266817Y-20444205D01*
X83340104Y-20479259D01*
X83371653Y-20505865D01*
X83360022Y-20524862D01*
X83303767Y-20537085D01*
X83201442Y-20543371D01*
X83093362Y-20544693D01*
X82969570Y-20543821D01*
X82883339Y-20540144D01*
X82823406Y-20532071D01*
X82778502Y-20518009D01*
X82737364Y-20496366D01*
X82733121Y-20493784D01*
X82650135Y-20442875D01*
X82495716Y-20515986D01*
X82322005Y-20575558D01*
X82146438Y-20592055D01*
X81973762Y-20565319D01*
X81890589Y-20535944D01*
X81771099Y-20469620D01*
X81693384Y-20386010D01*
X81651780Y-20277495D01*
X81642048Y-20201494D01*
X81647279Y-20127381D01*
X82150238Y-20127381D01*
X82159475Y-20222724D01*
X82190788Y-20288509D01*
X82251850Y-20337611D01*
X82286101Y-20355360D01*
X82380439Y-20385145D01*
X82476521Y-20380478D01*
X82553227Y-20357102D01*
X82637923Y-20324930D01*
X82637923Y-20090668D01*
X82637923Y-19856406D01*
X82546337Y-19856530D01*
X82414289Y-19869160D01*
X82296825Y-19903539D01*
X82209849Y-19954948D01*
X82207400Y-19957136D01*
X82170879Y-20000524D01*
X82153797Y-20054641D01*
X82150238Y-20127381D01*
X81647279Y-20127381D01*
X81651120Y-20072950D01*
X81696908Y-19965267D01*
X81781067Y-19877402D01*
X81905252Y-19808314D01*
X82071120Y-19756958D01*
X82280325Y-19722292D01*
X82423264Y-19709346D01*
X82643258Y-19694249D01*
X82632903Y-19564102D01*
X82610300Y-19446412D01*
X82560948Y-19362029D01*
X82479947Y-19304547D01*
X82416475Y-19280992D01*
X82308115Y-19264700D01*
X82165074Y-19269994D01*
X81984147Y-19297077D01*
X81900251Y-19314101D01*
X81850536Y-19318211D01*
X81826137Y-19293867D01*
X81817570Y-19268041D01*
X81811119Y-19231681D01*
X81820233Y-19204248D01*
X81852406Y-19180675D01*
X81915132Y-19155896D01*
X82015903Y-19124843D01*
X82039558Y-19117936D01*
X82174545Y-19088360D01*
X82327791Y-19070365D01*
X82486463Y-19063956D01*
X82637729Y-19069137D01*
G37*
G36*
X95720946Y-19847984D02*
G01*
X95798501Y-19885445D01*
X95838008Y-19940764D01*
X95836296Y-20008120D01*
X95790198Y-20081691D01*
X95759188Y-20111078D01*
X95723083Y-20146631D01*
X95715192Y-20166032D01*
X95719270Y-20167245D01*
X95753633Y-20181194D01*
X95802961Y-20215401D01*
X95810607Y-20221692D01*
X95862729Y-20293540D01*
X95875269Y-20379350D01*
X95850084Y-20457111D01*
X95791454Y-20513557D01*
X95702275Y-20550354D01*
X95597085Y-20564944D01*
X95490419Y-20554766D01*
X95423961Y-20532154D01*
X95355204Y-20491795D01*
X95322360Y-20445983D01*
X95316051Y-20397520D01*
X95438203Y-20397520D01*
X95467957Y-20458247D01*
X95521392Y-20501530D01*
X95590973Y-20519378D01*
X95669167Y-20503801D01*
X95698835Y-20487927D01*
X95744764Y-20435452D01*
X95751419Y-20370725D01*
X95719368Y-20307180D01*
X95690044Y-20280786D01*
X95607452Y-20231625D01*
X95544327Y-20218961D01*
X95493683Y-20241959D01*
X95479872Y-20255695D01*
X95439663Y-20327339D01*
X95438203Y-20397520D01*
X95316051Y-20397520D01*
X95313874Y-20380793D01*
X95333877Y-20314447D01*
X95395068Y-20246871D01*
X95476637Y-20176936D01*
X95419492Y-20137750D01*
X95377249Y-20093034D01*
X95362653Y-20027767D01*
X95362346Y-20012400D01*
X95367344Y-19990642D01*
X95485823Y-19990642D01*
X95518190Y-20049921D01*
X95549650Y-20077421D01*
X95610656Y-20111463D01*
X95654314Y-20107394D01*
X95691618Y-20063268D01*
X95698416Y-20051090D01*
X95717175Y-19981111D01*
X95700105Y-19922187D01*
X95652762Y-19885417D01*
X95612066Y-19878609D01*
X95536040Y-19894539D01*
X95492866Y-19935366D01*
X95485823Y-19990642D01*
X95367344Y-19990642D01*
X95381858Y-19927458D01*
X95439866Y-19869474D01*
X95535578Y-19839023D01*
X95608509Y-19834203D01*
X95720946Y-19847984D01*
G37*
G36*
X97264077Y-19826489D02*
G01*
X97239829Y-19849638D01*
X97176203Y-19884024D01*
X97139038Y-19900811D01*
X97041187Y-19954672D01*
X96967569Y-20017354D01*
X96955952Y-20031761D01*
X96913428Y-20096938D01*
X96904264Y-20130191D01*
X96928419Y-20132000D01*
X96948241Y-20123621D01*
X97004723Y-20107907D01*
X97078384Y-20100688D01*
X97084446Y-20100637D01*
X97180397Y-20120076D01*
X97254735Y-20172286D01*
X97301920Y-20248105D01*
X97316413Y-20338370D01*
X97292672Y-20433919D01*
X97289688Y-20440066D01*
X97231756Y-20506304D01*
X97144505Y-20548908D01*
X97042084Y-20564500D01*
X96938642Y-20549705D01*
X96898105Y-20533523D01*
X96824594Y-20473544D01*
X96776906Y-20385433D01*
X96760570Y-20295625D01*
X96884689Y-20295625D01*
X96887413Y-20357109D01*
X96919622Y-20437125D01*
X96972315Y-20493005D01*
X97035728Y-20520533D01*
X97100098Y-20515489D01*
X97155659Y-20473659D01*
X97156058Y-20473144D01*
X97188336Y-20399716D01*
X97190160Y-20315700D01*
X97164545Y-20236610D01*
X97114507Y-20177961D01*
X97096631Y-20167365D01*
X97024207Y-20152681D01*
X96958913Y-20174449D01*
X96909493Y-20224740D01*
X96884689Y-20295625D01*
X96760570Y-20295625D01*
X96757761Y-20280182D01*
X96769880Y-20168782D01*
X96792262Y-20105777D01*
X96872251Y-19987279D01*
X96988674Y-19896257D01*
X97137094Y-19835870D01*
X97187971Y-19824047D01*
X97247330Y-19817113D01*
X97264077Y-19826489D01*
G37*
G36*
X84268376Y-19209935D02*
G01*
X84270101Y-19482467D01*
X84272166Y-19713422D01*
X84274658Y-19905628D01*
X84277664Y-20061914D01*
X84281271Y-20185108D01*
X84285564Y-20278037D01*
X84290632Y-20343529D01*
X84296560Y-20384414D01*
X84303435Y-20403518D01*
X84305011Y-20405030D01*
X84346344Y-20423834D01*
X84413398Y-20445819D01*
X84439125Y-20452885D01*
X84506433Y-20477318D01*
X84540811Y-20504586D01*
X84542923Y-20512280D01*
X84536476Y-20523259D01*
X84513308Y-20531514D01*
X84467674Y-20537409D01*
X84393833Y-20541306D01*
X84286041Y-20543568D01*
X84138557Y-20544558D01*
X84030039Y-20544693D01*
X83856311Y-20544285D01*
X83725682Y-20542821D01*
X83632407Y-20539937D01*
X83570744Y-20535270D01*
X83534950Y-20528458D01*
X83519283Y-20519138D01*
X83517154Y-20512280D01*
X83539368Y-20485487D01*
X83598073Y-20459492D01*
X83620952Y-20452885D01*
X83691980Y-20431578D01*
X83744968Y-20410680D01*
X83755279Y-20404870D01*
X83762760Y-20390042D01*
X83769011Y-20354696D01*
X83774120Y-20295744D01*
X83778176Y-20210096D01*
X83781270Y-20094665D01*
X83783490Y-19946360D01*
X83784925Y-19762093D01*
X83785666Y-19538776D01*
X83785819Y-19348574D01*
X83785830Y-18313311D01*
X84023944Y-18174512D01*
X84262058Y-18035713D01*
X84268376Y-19209935D01*
G37*
G36*
X86284486Y-19079692D02*
G01*
X86373062Y-19081564D01*
X86428354Y-19086005D01*
X86458143Y-19094095D01*
X86470209Y-19106915D01*
X86472346Y-19123394D01*
X86460133Y-19154576D01*
X86416721Y-19177783D01*
X86359824Y-19193237D01*
X86328725Y-19199917D01*
X86302701Y-19206802D01*
X86279457Y-19217790D01*
X86256699Y-19236776D01*
X86232133Y-19267658D01*
X86203463Y-19314330D01*
X86168395Y-19380690D01*
X86124633Y-19470633D01*
X86069884Y-19588056D01*
X86001852Y-19736856D01*
X85918243Y-19920928D01*
X85874440Y-20017376D01*
X85634817Y-20544693D01*
X85509248Y-20544693D01*
X85383678Y-20544693D01*
X85105815Y-19917464D01*
X85035007Y-19759015D01*
X84968449Y-19612706D01*
X84908707Y-19483971D01*
X84858347Y-19378246D01*
X84819932Y-19300969D01*
X84796029Y-19257574D01*
X84791463Y-19251286D01*
X84744323Y-19220043D01*
X84675026Y-19193078D01*
X84661160Y-19189372D01*
X84594805Y-19165724D01*
X84568645Y-19134435D01*
X84567346Y-19122858D01*
X84569531Y-19107728D01*
X84580384Y-19096576D01*
X84606356Y-19088799D01*
X84653898Y-19083789D01*
X84729459Y-19080942D01*
X84839491Y-19079652D01*
X84990443Y-19079315D01*
X85031385Y-19079308D01*
X85192665Y-19079527D01*
X85311542Y-19080581D01*
X85394460Y-19083061D01*
X85447859Y-19087561D01*
X85478184Y-19094673D01*
X85491876Y-19104989D01*
X85495378Y-19119102D01*
X85495423Y-19121992D01*
X85472785Y-19162045D01*
X85413107Y-19189372D01*
X85330792Y-19214069D01*
X85422462Y-19440876D01*
X85491736Y-19612280D01*
X85546078Y-19746425D01*
X85587469Y-19847710D01*
X85617892Y-19920535D01*
X85639328Y-19969299D01*
X85653758Y-19998401D01*
X85663165Y-20012241D01*
X85669530Y-20015218D01*
X85674834Y-20011731D01*
X85678152Y-20008529D01*
X85694081Y-19981483D01*
X85722377Y-19921457D01*
X85759748Y-19836533D01*
X85802902Y-19734792D01*
X85848546Y-19624315D01*
X85893388Y-19513186D01*
X85934135Y-19409484D01*
X85967495Y-19321293D01*
X85990176Y-19256694D01*
X85998884Y-19223768D01*
X85998679Y-19221739D01*
X85969436Y-19200157D01*
X85913727Y-19183119D01*
X85912715Y-19182933D01*
X85855520Y-19162754D01*
X85837385Y-19126640D01*
X85837346Y-19124269D01*
X85839917Y-19105919D01*
X85852821Y-19093382D01*
X85883851Y-19085556D01*
X85940795Y-19081337D01*
X86031446Y-19079622D01*
X86154846Y-19079308D01*
X86284486Y-19079692D01*
G37*
G36*
X87255439Y-19707522D02*
G01*
X87258966Y-19878101D01*
X87262447Y-20033742D01*
X87265742Y-20169073D01*
X87268710Y-20278725D01*
X87271209Y-20357327D01*
X87273100Y-20399510D01*
X87273757Y-20405253D01*
X87297690Y-20413707D01*
X87353711Y-20429871D01*
X87394317Y-20440856D01*
X87470336Y-20467924D01*
X87513156Y-20497973D01*
X87518224Y-20508136D01*
X87516919Y-20520445D01*
X87502978Y-20529660D01*
X87470434Y-20536219D01*
X87413319Y-20540562D01*
X87325667Y-20543129D01*
X87201510Y-20544359D01*
X87034883Y-20544692D01*
X87021866Y-20544693D01*
X86852134Y-20544405D01*
X86725280Y-20543250D01*
X86635335Y-20540788D01*
X86576334Y-20536580D01*
X86542308Y-20530185D01*
X86527292Y-20521165D01*
X86525318Y-20509080D01*
X86525507Y-20508136D01*
X86553918Y-20478500D01*
X86619516Y-20449679D01*
X86649414Y-20440856D01*
X86765423Y-20410132D01*
X86765468Y-19850183D01*
X86765513Y-19290235D01*
X87003593Y-19152452D01*
X87241673Y-19014669D01*
X87255439Y-19707522D01*
G37*
G36*
X89126048Y-19069268D02*
G01*
X89203088Y-19074162D01*
X89259015Y-19085455D01*
X89307686Y-19105711D01*
X89351773Y-19130733D01*
X89410224Y-19168926D01*
X89455882Y-19208827D01*
X89490320Y-19256304D01*
X89515114Y-19317225D01*
X89531837Y-19397455D01*
X89542065Y-19502861D01*
X89547371Y-19639312D01*
X89549330Y-19812674D01*
X89549492Y-19867507D01*
X89550648Y-20011581D01*
X89553374Y-20141484D01*
X89557389Y-20250367D01*
X89562414Y-20331379D01*
X89568167Y-20377671D01*
X89570693Y-20385056D01*
X89605126Y-20408616D01*
X89668124Y-20433908D01*
X89698541Y-20442981D01*
X89768973Y-20469112D01*
X89809539Y-20498980D01*
X89813993Y-20508256D01*
X89812632Y-20520679D01*
X89798383Y-20529935D01*
X89765207Y-20536482D01*
X89707061Y-20540774D01*
X89617904Y-20543269D01*
X89491694Y-20544423D01*
X89331637Y-20544693D01*
X89161455Y-20544226D01*
X89034363Y-20542580D01*
X88944617Y-20539386D01*
X88886469Y-20534276D01*
X88854172Y-20526881D01*
X88841981Y-20516832D01*
X88841385Y-20513239D01*
X88862509Y-20487877D01*
X88915812Y-20460532D01*
X88945183Y-20450346D01*
X89048981Y-20418907D01*
X89055308Y-19954483D01*
X89057027Y-19795407D01*
X89056978Y-19674159D01*
X89054717Y-19584177D01*
X89049802Y-19518900D01*
X89041789Y-19471765D01*
X89030233Y-19436213D01*
X89018673Y-19412659D01*
X88974343Y-19353905D01*
X88921902Y-19311193D01*
X88914654Y-19307523D01*
X88830544Y-19286115D01*
X88722499Y-19280770D01*
X88612026Y-19291264D01*
X88534875Y-19311470D01*
X88449742Y-19343807D01*
X88456285Y-19882492D01*
X88462827Y-20421178D01*
X88560519Y-20446068D01*
X88626993Y-20471083D01*
X88663567Y-20501297D01*
X88666108Y-20507826D01*
X88664919Y-20520367D01*
X88651196Y-20529717D01*
X88618895Y-20536334D01*
X88561968Y-20540680D01*
X88474368Y-20543215D01*
X88350050Y-20544399D01*
X88182966Y-20544693D01*
X88181962Y-20544693D01*
X88014841Y-20544422D01*
X87890490Y-20543294D01*
X87802834Y-20540835D01*
X87745799Y-20536569D01*
X87713310Y-20530022D01*
X87699293Y-20520719D01*
X87697673Y-20508186D01*
X87697930Y-20506874D01*
X87728051Y-20474850D01*
X87798771Y-20448582D01*
X87810545Y-20445816D01*
X87880182Y-20424281D01*
X87929421Y-20398138D01*
X87938278Y-20389273D01*
X87946805Y-20354909D01*
X87953474Y-20284169D01*
X87958329Y-20184663D01*
X87961416Y-20064005D01*
X87962778Y-19929807D01*
X87962461Y-19789680D01*
X87960507Y-19651238D01*
X87956963Y-19522091D01*
X87951873Y-19409852D01*
X87945281Y-19322134D01*
X87937231Y-19266549D01*
X87931625Y-19251673D01*
X87889752Y-19223823D01*
X87822009Y-19197709D01*
X87797298Y-19191066D01*
X87727502Y-19168604D01*
X87696999Y-19141048D01*
X87693500Y-19122858D01*
X87696032Y-19106345D01*
X87708383Y-19094632D01*
X87737684Y-19086897D01*
X87791067Y-19082319D01*
X87875662Y-19080079D01*
X87998603Y-19079357D01*
X88072058Y-19079308D01*
X88450616Y-19079308D01*
X88450616Y-19144750D01*
X88450616Y-19210192D01*
X88615471Y-19139199D01*
X88699297Y-19105113D01*
X88768963Y-19084056D01*
X88841738Y-19072951D01*
X88934891Y-19068724D01*
X89014038Y-19068207D01*
X89126048Y-19069268D01*
G37*
G36*
X94924283Y-19870741D02*
G01*
X94938723Y-19903568D01*
X94945329Y-19963088D01*
X94947134Y-20055514D01*
X94947154Y-20164537D01*
X94947554Y-20287431D01*
X94949576Y-20373619D01*
X94954454Y-20430796D01*
X94963421Y-20466660D01*
X94977709Y-20488908D01*
X94998553Y-20505237D01*
X95002106Y-20507516D01*
X95027594Y-20525619D01*
X95027975Y-20536047D01*
X94996238Y-20540906D01*
X94925373Y-20542303D01*
X94886096Y-20542363D01*
X94798267Y-20541740D01*
X94752269Y-20538466D01*
X94741094Y-20530435D01*
X94757729Y-20515541D01*
X94770087Y-20507516D01*
X94793569Y-20489866D01*
X94809208Y-20466655D01*
X94818586Y-20429353D01*
X94823288Y-20369427D01*
X94824897Y-20278345D01*
X94825039Y-20211532D01*
X94824459Y-20099919D01*
X94821791Y-20024935D01*
X94815645Y-19978806D01*
X94804626Y-19953760D01*
X94787344Y-19942024D01*
X94776192Y-19938784D01*
X94733455Y-19919177D01*
X94735862Y-19895942D01*
X94780922Y-19875285D01*
X94803668Y-19870283D01*
X94859786Y-19860312D01*
X94898981Y-19858394D01*
X94924283Y-19870741D01*
G37*
G36*
X96471650Y-19835250D02*
G01*
X96558895Y-19838089D01*
X96615570Y-19842266D01*
X96632346Y-19846550D01*
X96623220Y-19870721D01*
X96598475Y-19926807D01*
X96562063Y-20006040D01*
X96524800Y-20085230D01*
X96475179Y-20191771D01*
X96427910Y-20296938D01*
X96389567Y-20385930D01*
X96372529Y-20428128D01*
X96341929Y-20497648D01*
X96313474Y-20533275D01*
X96278998Y-20544520D01*
X96272479Y-20544693D01*
X96229342Y-20540797D01*
X96217154Y-20534322D01*
X96227092Y-20511687D01*
X96254466Y-20456244D01*
X96295616Y-20375238D01*
X96346883Y-20275911D01*
X96374204Y-20223482D01*
X96531254Y-19923014D01*
X96350246Y-19923014D01*
X96257254Y-19923925D01*
X96201837Y-19928779D01*
X96172731Y-19940763D01*
X96158670Y-19963059D01*
X96153914Y-19978521D01*
X96134044Y-20024881D01*
X96114788Y-20030152D01*
X96100380Y-19997525D01*
X96095039Y-19934116D01*
X96095039Y-19834203D01*
X96363692Y-19834203D01*
X96471650Y-19835250D01*
G37*
G36*
X87268737Y-18344892D02*
G01*
X87275212Y-18398765D01*
X87278225Y-18475385D01*
X87278308Y-18491283D01*
X87278308Y-18658154D01*
X87033483Y-18802123D01*
X86937388Y-18858044D01*
X86856804Y-18903832D01*
X86800190Y-18934758D01*
X86776013Y-18946091D01*
X86770901Y-18925697D01*
X86768700Y-18871628D01*
X86769753Y-18794552D01*
X86770502Y-18774445D01*
X86777635Y-18602799D01*
X87009654Y-18463785D01*
X87103501Y-18408453D01*
X87182535Y-18363534D01*
X87237860Y-18333975D01*
X87259991Y-18324592D01*
X87268737Y-18344892D01*
G37*
G36*
X93065142Y-19165798D02*
G01*
X93069309Y-19171377D01*
X93076513Y-19203029D01*
X93082696Y-19270723D01*
X93087389Y-19366096D01*
X93090123Y-19480790D01*
X93090626Y-19551830D01*
X93089132Y-19710809D01*
X93082929Y-19832292D01*
X93070015Y-19923121D01*
X93048387Y-19990136D01*
X93016042Y-20040181D01*
X92970976Y-20080095D01*
X92928011Y-20107276D01*
X92872431Y-20139562D01*
X92786837Y-20189667D01*
X92682152Y-20251182D01*
X92569296Y-20317698D01*
X92549511Y-20329380D01*
X92264465Y-20497740D01*
X91886463Y-20275926D01*
X91729762Y-20181922D01*
X91613296Y-20107232D01*
X91534376Y-20049982D01*
X91490307Y-20008300D01*
X91480956Y-19993746D01*
X91469653Y-19942942D01*
X91462329Y-19850366D01*
X91459099Y-19718516D01*
X91460079Y-19549885D01*
X91460159Y-19545200D01*
X91462757Y-19405579D01*
X91465626Y-19304257D01*
X91469708Y-19235130D01*
X91475948Y-19192096D01*
X91485291Y-19169052D01*
X91498679Y-19159895D01*
X91517056Y-19158521D01*
X91519958Y-19158599D01*
X91561605Y-19171012D01*
X91632543Y-19203325D01*
X91721850Y-19250234D01*
X91794335Y-19291816D01*
X92015618Y-19423451D01*
X92016694Y-19578871D01*
X92017770Y-19734290D01*
X92152234Y-19808280D01*
X92286698Y-19882270D01*
X92407983Y-19811516D01*
X92529269Y-19740763D01*
X92529269Y-19589057D01*
X92529269Y-19437351D01*
X92734195Y-19315917D01*
X92852755Y-19246055D01*
X92937188Y-19197911D01*
X92994070Y-19168649D01*
X93029973Y-19155433D01*
X93051472Y-19155428D01*
X93065142Y-19165798D01*
G37*
%TD*%
D10*
%TO.C,R44*%
X117080000Y-50250000D03*
X117080000Y-49230000D03*
%TD*%
D11*
%TO.C,Q10*%
X65620000Y-58470000D03*
X65620000Y-60370000D03*
X67820000Y-59420000D03*
%TD*%
D12*
%TO.C,D10*%
X128630000Y-76940000D03*
X133030000Y-76940000D03*
%TD*%
D13*
%TO.C,D6*%
X95280000Y-78355000D03*
X95280000Y-77385000D03*
%TD*%
D14*
%TO.C,Q8*%
X58700000Y-48030000D03*
X58700000Y-46130000D03*
X56700000Y-47080000D03*
%TD*%
D15*
%TO.C,R7*%
X61740000Y-41470000D03*
X62760000Y-41470000D03*
%TD*%
D14*
%TO.C,Q4*%
X34360000Y-61320000D03*
X34360000Y-59420000D03*
X32360000Y-60370000D03*
%TD*%
D16*
%TO.C,R3*%
X37210000Y-47600000D03*
X36190000Y-47600000D03*
%TD*%
D10*
%TO.C,R39*%
X109000000Y-52976666D03*
X109000000Y-51956666D03*
%TD*%
D17*
%TO.C,R20*%
X61330000Y-64930000D03*
X61330000Y-65950000D03*
%TD*%
D10*
%TO.C,R41*%
X117080000Y-41270000D03*
X117080000Y-40250000D03*
%TD*%
D13*
%TO.C,D5*%
X95280000Y-43205000D03*
X95280000Y-42235000D03*
%TD*%
D18*
%TO.C,IC1*%
X80780000Y-70055000D03*
X81280000Y-70055000D03*
X81780000Y-70055000D03*
X82280000Y-70055000D03*
X82280000Y-66905000D03*
X81780000Y-66905000D03*
X81280000Y-66905000D03*
X80780000Y-66905000D03*
%TD*%
D10*
%TO.C,R40*%
X109000000Y-38910000D03*
X109000000Y-37890000D03*
%TD*%
D19*
%TO.C,C12*%
X34110000Y-23812428D03*
X34610000Y-23812428D03*
%TD*%
D20*
%TO.C,IC7*%
X103008000Y-66090000D03*
X103008000Y-67360000D03*
X103008000Y-68630000D03*
X103008000Y-69900000D03*
X103008000Y-71170000D03*
X103008000Y-72440000D03*
X103008000Y-73710000D03*
X108432000Y-73710000D03*
X108432000Y-72440000D03*
X108432000Y-71170000D03*
X108432000Y-69900000D03*
X108432000Y-68630000D03*
X108432000Y-67360000D03*
X108432000Y-66090000D03*
%TD*%
D21*
%TO.C,D13*%
X69940000Y-81827500D03*
X69940000Y-82797500D03*
%TD*%
D22*
%TO.C,C21*%
X114000000Y-70830000D03*
X114000000Y-70330000D03*
%TD*%
D16*
%TO.C,R34*%
X110346250Y-77920000D03*
X109326250Y-77920000D03*
%TD*%
D19*
%TO.C,C29*%
X105340000Y-57000000D03*
X105840000Y-57000000D03*
%TD*%
D22*
%TO.C,C20*%
X107330000Y-79590000D03*
X107330000Y-79090000D03*
%TD*%
D23*
%TO.C,IC19*%
X104940000Y-39460000D03*
D24*
X105340000Y-39510000D03*
X105740000Y-39510000D03*
X106140000Y-39510000D03*
D25*
X106740000Y-39310000D03*
X106740000Y-38910000D03*
X106740000Y-38510000D03*
X106740000Y-38110000D03*
D24*
X106140000Y-37910000D03*
X105740000Y-37910000D03*
X105340000Y-37910000D03*
X104940000Y-37910000D03*
D25*
X104340000Y-38110000D03*
X104340000Y-38510000D03*
X104340000Y-38910000D03*
X104340000Y-39310000D03*
%TD*%
D17*
%TO.C,R2*%
X36480000Y-60290000D03*
X36480000Y-61310000D03*
%TD*%
D16*
%TO.C,R28*%
X35170000Y-30900000D03*
X34150000Y-30900000D03*
%TD*%
%TO.C,R14*%
X88980000Y-87460000D03*
X87960000Y-87460000D03*
%TD*%
D26*
%TO.C,IC2*%
X83300000Y-51002000D03*
X84570000Y-51002000D03*
X85840000Y-51002000D03*
X87110000Y-51002000D03*
X88380000Y-51002000D03*
X89650000Y-51002000D03*
X90920000Y-51002000D03*
X90920000Y-45578000D03*
X89650000Y-45578000D03*
X88380000Y-45578000D03*
X87110000Y-45578000D03*
X85840000Y-45578000D03*
X84570000Y-45578000D03*
X83300000Y-45578000D03*
%TD*%
D11*
%TO.C,Q5*%
X66020000Y-39870000D03*
X66020000Y-41770000D03*
X68220000Y-40820000D03*
%TD*%
D19*
%TO.C,C1*%
X83930000Y-43670000D03*
X84430000Y-43670000D03*
%TD*%
D16*
%TO.C,R10*%
X61740000Y-48500000D03*
X60720000Y-48500000D03*
%TD*%
D11*
%TO.C,Q9*%
X65620000Y-65630000D03*
X65620000Y-67530000D03*
X67820000Y-66580000D03*
%TD*%
D16*
%TO.C,R30*%
X106190000Y-85470000D03*
X105170000Y-85470000D03*
%TD*%
D27*
%TO.C,VR1*%
X122260000Y-90420000D03*
D28*
X121110000Y-86420000D03*
D27*
X119960000Y-90420000D03*
%TD*%
D23*
%TO.C,IC13*%
X112840000Y-32840000D03*
D24*
X113240000Y-32890000D03*
X113640000Y-32890000D03*
X114040000Y-32890000D03*
D25*
X114640000Y-32690000D03*
X114640000Y-32290000D03*
X114640000Y-31890000D03*
X114640000Y-31490000D03*
D24*
X114040000Y-31290000D03*
X113640000Y-31290000D03*
X113240000Y-31290000D03*
X112840000Y-31290000D03*
D25*
X112240000Y-31490000D03*
X112240000Y-31890000D03*
X112240000Y-32290000D03*
X112240000Y-32690000D03*
%TD*%
D19*
%TO.C,C14*%
X81820000Y-33810000D03*
X82320000Y-33810000D03*
%TD*%
D11*
%TO.C,Q6*%
X68190000Y-49000000D03*
X68190000Y-47100000D03*
X65990000Y-48050000D03*
%TD*%
D15*
%TO.C,R17*%
X32450000Y-79260000D03*
X33470000Y-79260000D03*
%TD*%
D10*
%TO.C,R42*%
X109000000Y-45943333D03*
X109000000Y-44923333D03*
%TD*%
D14*
%TO.C,Q7*%
X56700000Y-40610000D03*
X56700000Y-42510000D03*
X58700000Y-41560000D03*
%TD*%
D13*
%TO.C,D3*%
X95280000Y-60735000D03*
X95280000Y-59765000D03*
%TD*%
D29*
%TO.C,IC3*%
X83900000Y-84630000D03*
X83900000Y-85580000D03*
X83900000Y-86530000D03*
X86400000Y-86530000D03*
X86400000Y-84630000D03*
%TD*%
D16*
%TO.C,R8*%
X61740000Y-40100000D03*
X60720000Y-40100000D03*
%TD*%
D15*
%TO.C,R25*%
X59615000Y-84860000D03*
X60635000Y-84860000D03*
%TD*%
D14*
%TO.C,Q13*%
X49928626Y-22974000D03*
X49928626Y-21074000D03*
X47928626Y-22024000D03*
%TD*%
D15*
%TO.C,R24*%
X57636626Y-26360000D03*
X58656626Y-26360000D03*
%TD*%
D17*
%TO.C,R21*%
X62595000Y-61240000D03*
X62595000Y-62260000D03*
%TD*%
D16*
%TO.C,R36*%
X123160000Y-71090000D03*
X122140000Y-71090000D03*
%TD*%
D23*
%TO.C,IC17*%
X112840000Y-59780000D03*
D24*
X113240000Y-59830000D03*
X113640000Y-59830000D03*
X114040000Y-59830000D03*
D25*
X114640000Y-59630000D03*
X114640000Y-59230000D03*
X114640000Y-58830000D03*
X114640000Y-58430000D03*
D24*
X114040000Y-58230000D03*
X113640000Y-58230000D03*
X113240000Y-58230000D03*
X112840000Y-58230000D03*
D25*
X112240000Y-58430000D03*
X112240000Y-58830000D03*
X112240000Y-59230000D03*
X112240000Y-59630000D03*
%TD*%
D30*
%TO.C,D18*%
X121990000Y-68110000D03*
X122960000Y-68110000D03*
%TD*%
D15*
%TO.C,R23*%
X57636626Y-24454000D03*
X58656626Y-24454000D03*
%TD*%
%TO.C,R11*%
X82280000Y-60760000D03*
X83300000Y-60760000D03*
%TD*%
D14*
%TO.C,Q12*%
X59410000Y-61360000D03*
X59410000Y-59460000D03*
X57410000Y-60410000D03*
%TD*%
D19*
%TO.C,C22*%
X109350000Y-75750000D03*
X109850000Y-75750000D03*
%TD*%
D31*
%TO.C,C2*%
X82470000Y-79660000D03*
X82470000Y-80160000D03*
%TD*%
D28*
%TO.C,SW2*%
X25300000Y-32660000D03*
X31300000Y-32660000D03*
%TD*%
D32*
%TO.C,IC6*%
X131190000Y-67385000D03*
D33*
X138370000Y-69670000D03*
D32*
X131190000Y-71955000D03*
%TD*%
D19*
%TO.C,C10*%
X34110000Y-20307572D03*
X34610000Y-20307572D03*
%TD*%
D21*
%TO.C,D12*%
X67865626Y-24890400D03*
X67865626Y-25860400D03*
%TD*%
D34*
%TO.C,U2*%
X136420000Y-85580000D03*
D35*
X136420000Y-84350000D03*
D36*
X136420000Y-83370000D03*
D37*
X136420000Y-82290000D03*
D38*
X136420000Y-81310000D03*
D39*
X136420000Y-80080000D03*
D40*
X136710000Y-88350000D03*
X136710000Y-77310000D03*
D41*
X140310000Y-88350000D03*
X140310000Y-77310000D03*
%TD*%
D17*
%TO.C,R1*%
X36500000Y-64470000D03*
X36500000Y-65490000D03*
%TD*%
D10*
%TO.C,R15*%
X88170000Y-79730000D03*
X88170000Y-78710000D03*
%TD*%
D13*
%TO.C,D14*%
X95280000Y-25345000D03*
X95280000Y-24375000D03*
%TD*%
D19*
%TO.C,C13*%
X34080000Y-32660000D03*
X34580000Y-32660000D03*
%TD*%
D42*
%TO.C,IC8*%
X103499000Y-87065000D03*
X103499000Y-88335000D03*
X103499000Y-89605000D03*
X103499000Y-90875000D03*
X108921000Y-90875000D03*
X108921000Y-89605000D03*
X108921000Y-88335000D03*
X108921000Y-87065000D03*
%TD*%
D29*
%TO.C,IC4*%
X86390000Y-79660000D03*
X86390000Y-78710000D03*
X86390000Y-77760000D03*
X83890000Y-77760000D03*
X83890000Y-79660000D03*
%TD*%
D21*
%TO.C,D20*%
X115280000Y-68272500D03*
X115280000Y-69242500D03*
%TD*%
D10*
%TO.C,R38*%
X117080000Y-59230000D03*
X117080000Y-58210000D03*
%TD*%
%TO.C,R47*%
X91930000Y-52720000D03*
X91930000Y-51700000D03*
%TD*%
%TO.C,R43*%
X117080000Y-32310000D03*
X117080000Y-31290000D03*
%TD*%
D22*
%TO.C,C7*%
X129755000Y-85913000D03*
X129755000Y-85413000D03*
%TD*%
D10*
%TO.C,R37*%
X116420000Y-69250000D03*
X116420000Y-68230000D03*
%TD*%
D20*
%TO.C,IC9*%
X116740000Y-73710000D03*
X116740000Y-74980000D03*
X116740000Y-76250000D03*
X116740000Y-77520000D03*
X116740000Y-78790000D03*
X116740000Y-80060000D03*
X116740000Y-81330000D03*
X122164000Y-81330000D03*
X122164000Y-80060000D03*
X122164000Y-78790000D03*
X122164000Y-77520000D03*
X122164000Y-76250000D03*
X122164000Y-74980000D03*
X122164000Y-73710000D03*
%TD*%
D43*
%TO.C,U1*%
X35052000Y-82926000D03*
X35052000Y-81976000D03*
X35052000Y-81026000D03*
X32452000Y-81026000D03*
X32452000Y-82926000D03*
%TD*%
D14*
%TO.C,Q1*%
X33810000Y-47900000D03*
X33810000Y-46000000D03*
X31810000Y-46950000D03*
%TD*%
D44*
%TO.C,C15*%
X119960000Y-92210000D03*
X119460000Y-92210000D03*
%TD*%
D13*
%TO.C,D7*%
X95280000Y-86857500D03*
X95280000Y-85887500D03*
%TD*%
D22*
%TO.C,C4*%
X83460000Y-67080000D03*
X83460000Y-66580000D03*
%TD*%
D28*
%TO.C,SW1*%
X25300000Y-22060000D03*
X31300000Y-22060000D03*
%TD*%
D16*
%TO.C,R46*%
X125020000Y-56150000D03*
X124000000Y-56150000D03*
%TD*%
%TO.C,R12*%
X64320000Y-44300000D03*
X63300000Y-44300000D03*
%TD*%
D19*
%TO.C,C26*%
X113240000Y-56110000D03*
X113740000Y-56110000D03*
%TD*%
D45*
%TO.C,DS1*%
X124010000Y-30070000D03*
X124010000Y-32610000D03*
X124010000Y-35150000D03*
X124010000Y-37690000D03*
X124010000Y-40230000D03*
X124010000Y-42770000D03*
X124010000Y-45310000D03*
X124010000Y-47850000D03*
X124010000Y-50390000D03*
X139250000Y-50390000D03*
X139250000Y-47850000D03*
X139250000Y-45310000D03*
X139250000Y-42770000D03*
X139250000Y-40230000D03*
X139250000Y-37690000D03*
X139250000Y-35150000D03*
X139250000Y-32610000D03*
X139250000Y-30070000D03*
%TD*%
D10*
%TO.C,R31*%
X111640000Y-88330000D03*
X111640000Y-87310000D03*
%TD*%
D19*
%TO.C,C30*%
X113240000Y-47156666D03*
X113740000Y-47156666D03*
%TD*%
D23*
%TO.C,IC15*%
X104940000Y-60550000D03*
D24*
X105340000Y-60600000D03*
X105740000Y-60600000D03*
X106140000Y-60600000D03*
D25*
X106740000Y-60400000D03*
X106740000Y-60000000D03*
X106740000Y-59600000D03*
X106740000Y-59200000D03*
D24*
X106140000Y-59000000D03*
X105740000Y-59000000D03*
X105340000Y-59000000D03*
X104940000Y-59000000D03*
D25*
X104340000Y-59200000D03*
X104340000Y-59600000D03*
X104340000Y-60000000D03*
X104340000Y-60400000D03*
%TD*%
D19*
%TO.C,C24*%
X105340000Y-35910000D03*
X105840000Y-35910000D03*
%TD*%
D46*
%TO.C,D17*%
X112363750Y-77920000D03*
X111393750Y-77920000D03*
%TD*%
D10*
%TO.C,R22*%
X63860000Y-63390000D03*
X63860000Y-62370000D03*
%TD*%
D17*
%TO.C,R5*%
X38230000Y-62350000D03*
X38230000Y-63370000D03*
%TD*%
D47*
%TO.C,IC10*%
X120097500Y-68230000D03*
X120097500Y-67580000D03*
X120097500Y-66930000D03*
X117897500Y-66930000D03*
X117897500Y-67580000D03*
X117897500Y-68230000D03*
%TD*%
D44*
%TO.C,C9*%
X60705000Y-79900000D03*
X60205000Y-79900000D03*
%TD*%
D30*
%TO.C,D19*%
X122165000Y-69890000D03*
X123135000Y-69890000D03*
%TD*%
D44*
%TO.C,C5*%
X32450000Y-84510000D03*
X31950000Y-84510000D03*
%TD*%
D23*
%TO.C,IC20*%
X112840000Y-41820000D03*
D24*
X113240000Y-41870000D03*
X113640000Y-41870000D03*
X114040000Y-41870000D03*
D25*
X114640000Y-41670000D03*
X114640000Y-41270000D03*
X114640000Y-40870000D03*
X114640000Y-40470000D03*
D24*
X114040000Y-40270000D03*
X113640000Y-40270000D03*
X113240000Y-40270000D03*
X112840000Y-40270000D03*
D25*
X112240000Y-40470000D03*
X112240000Y-40870000D03*
X112240000Y-41270000D03*
X112240000Y-41670000D03*
%TD*%
D13*
%TO.C,D8*%
X42110000Y-82465000D03*
X42110000Y-81495000D03*
%TD*%
%TO.C,D2*%
X42110000Y-44775000D03*
X42110000Y-43805000D03*
%TD*%
D16*
%TO.C,R13*%
X91300000Y-43720000D03*
X90280000Y-43720000D03*
%TD*%
D19*
%TO.C,C28*%
X113240000Y-38203333D03*
X113740000Y-38203333D03*
%TD*%
%TO.C,C27*%
X105340000Y-49970000D03*
X105840000Y-49970000D03*
%TD*%
D15*
%TO.C,R33*%
X113750000Y-81580000D03*
X114770000Y-81580000D03*
%TD*%
D31*
%TO.C,C19*%
X114000000Y-67580000D03*
X114000000Y-68080000D03*
%TD*%
D21*
%TO.C,D21*%
X95280000Y-68457500D03*
X95280000Y-69427500D03*
%TD*%
D23*
%TO.C,IC16*%
X121600000Y-60120000D03*
D24*
X122000000Y-60170000D03*
X122400000Y-60170000D03*
X122800000Y-60170000D03*
D25*
X123400000Y-59970000D03*
X123400000Y-59570000D03*
X123400000Y-59170000D03*
X123400000Y-58770000D03*
D24*
X122800000Y-58570000D03*
X122400000Y-58570000D03*
X122000000Y-58570000D03*
X121600000Y-58570000D03*
D25*
X121000000Y-58770000D03*
X121000000Y-59170000D03*
X121000000Y-59570000D03*
X121000000Y-59970000D03*
%TD*%
D14*
%TO.C,Q11*%
X59410000Y-66440000D03*
X59410000Y-64540000D03*
X57410000Y-65490000D03*
%TD*%
D23*
%TO.C,IC21*%
X104940000Y-53520000D03*
D24*
X105340000Y-53570000D03*
X105740000Y-53570000D03*
X106140000Y-53570000D03*
D25*
X106740000Y-53370000D03*
X106740000Y-52970000D03*
X106740000Y-52570000D03*
X106740000Y-52170000D03*
D24*
X106140000Y-51970000D03*
X105740000Y-51970000D03*
X105340000Y-51970000D03*
X104940000Y-51970000D03*
D25*
X104340000Y-52170000D03*
X104340000Y-52570000D03*
X104340000Y-52970000D03*
X104340000Y-53370000D03*
%TD*%
D16*
%TO.C,R35*%
X122955000Y-66930000D03*
X121935000Y-66930000D03*
%TD*%
D14*
%TO.C,Q2*%
X33782000Y-42408000D03*
X33782000Y-40508000D03*
X31782000Y-41458000D03*
%TD*%
D19*
%TO.C,C11*%
X34080000Y-29140000D03*
X34580000Y-29140000D03*
%TD*%
D48*
%TO.C,IC5*%
X58380000Y-81630000D03*
X58380000Y-82280000D03*
X58380000Y-82930000D03*
X60280000Y-82930000D03*
X60280000Y-81630000D03*
%TD*%
D10*
%TO.C,R45*%
X109000000Y-60010000D03*
X109000000Y-58990000D03*
%TD*%
D31*
%TO.C,C16*%
X115300000Y-74970000D03*
X115300000Y-75470000D03*
%TD*%
D19*
%TO.C,C17*%
X108920000Y-92290000D03*
X109420000Y-92290000D03*
%TD*%
%TO.C,C25*%
X105340000Y-42940000D03*
X105840000Y-42940000D03*
%TD*%
D14*
%TO.C,Q3*%
X34360000Y-66400000D03*
X34360000Y-64500000D03*
X32360000Y-65450000D03*
%TD*%
D48*
%TO.C,IC12*%
X105760000Y-75750000D03*
X105760000Y-76400000D03*
X105760000Y-77050000D03*
X107660000Y-77050000D03*
X107660000Y-75750000D03*
%TD*%
D19*
%TO.C,C18*%
X113115000Y-87310000D03*
X113615000Y-87310000D03*
%TD*%
D44*
%TO.C,C6*%
X130010000Y-83480000D03*
X129510000Y-83480000D03*
%TD*%
D22*
%TO.C,C3*%
X88010000Y-84630000D03*
X88010000Y-84130000D03*
%TD*%
D10*
%TO.C,R32*%
X115160000Y-88330000D03*
X115160000Y-87310000D03*
%TD*%
D17*
%TO.C,R48*%
X83530000Y-69430000D03*
X83530000Y-70450000D03*
%TD*%
D21*
%TO.C,D9*%
X95280000Y-50695000D03*
X95280000Y-51665000D03*
%TD*%
D17*
%TO.C,R19*%
X61330000Y-59930000D03*
X61330000Y-60950000D03*
%TD*%
D44*
%TO.C,C8*%
X130010000Y-81297000D03*
X129510000Y-81297000D03*
%TD*%
D16*
%TO.C,R29*%
X82840000Y-31600000D03*
X81820000Y-31600000D03*
%TD*%
D47*
%TO.C,IC11*%
X120100000Y-71475000D03*
X120100000Y-70825000D03*
X120100000Y-70175000D03*
X117900000Y-70175000D03*
X117900000Y-70825000D03*
X117900000Y-71475000D03*
%TD*%
D23*
%TO.C,IC18*%
X104940000Y-46490000D03*
D24*
X105340000Y-46540000D03*
X105740000Y-46540000D03*
X106140000Y-46540000D03*
D25*
X106740000Y-46340000D03*
X106740000Y-45940000D03*
X106740000Y-45540000D03*
X106740000Y-45140000D03*
D24*
X106140000Y-44940000D03*
X105740000Y-44940000D03*
X105340000Y-44940000D03*
X104940000Y-44940000D03*
D25*
X104340000Y-45140000D03*
X104340000Y-45540000D03*
X104340000Y-45940000D03*
X104340000Y-46340000D03*
%TD*%
D30*
%TO.C,D16*%
X111370000Y-81580000D03*
X112340000Y-81580000D03*
%TD*%
D16*
%TO.C,R27*%
X35200000Y-22060000D03*
X34180000Y-22060000D03*
%TD*%
D29*
%TO.C,U3*%
X103580000Y-79590000D03*
X103580000Y-80540000D03*
X103580000Y-81490000D03*
X106080000Y-81490000D03*
X106080000Y-79590000D03*
%TD*%
D13*
%TO.C,D4*%
X69940000Y-44800000D03*
X69940000Y-43830000D03*
%TD*%
D10*
%TO.C,R18*%
X62580000Y-64840000D03*
X62580000Y-63820000D03*
%TD*%
D22*
%TO.C,C31*%
X118980000Y-59975000D03*
X118980000Y-59475000D03*
%TD*%
D19*
%TO.C,C23*%
X113240000Y-29250000D03*
X113740000Y-29250000D03*
%TD*%
D30*
%TO.C,D15*%
X102940000Y-85470000D03*
X103910000Y-85470000D03*
%TD*%
D15*
%TO.C,R16*%
X132430000Y-84730000D03*
X133450000Y-84730000D03*
%TD*%
D16*
%TO.C,R4*%
X37300000Y-40300000D03*
X36280000Y-40300000D03*
%TD*%
D13*
%TO.C,D1*%
X42110000Y-63315000D03*
X42110000Y-62345000D03*
%TD*%
%TO.C,D11*%
X69950000Y-63445000D03*
X69950000Y-62475000D03*
%TD*%
D15*
%TO.C,R26*%
X132450000Y-82280000D03*
X133470000Y-82280000D03*
%TD*%
D16*
%TO.C,R6*%
X39320000Y-44310000D03*
X38300000Y-44310000D03*
%TD*%
D15*
%TO.C,R9*%
X61740000Y-47090000D03*
X62760000Y-47090000D03*
%TD*%
D49*
%TO.C,S1*%
X130980000Y-61900000D03*
X132980000Y-61900000D03*
X136980000Y-61900000D03*
X138980000Y-61900000D03*
X130980000Y-59500000D03*
X132980000Y-59500000D03*
X136980000Y-59500000D03*
X138980000Y-59500000D03*
%TD*%
D23*
%TO.C,IC14*%
X112840000Y-50800000D03*
D24*
X113240000Y-50850000D03*
X113640000Y-50850000D03*
X114040000Y-50850000D03*
D25*
X114640000Y-50650000D03*
X114640000Y-50250000D03*
X114640000Y-49850000D03*
X114640000Y-49450000D03*
D24*
X114040000Y-49250000D03*
X113640000Y-49250000D03*
X113240000Y-49250000D03*
X112840000Y-49250000D03*
D25*
X112240000Y-49450000D03*
X112240000Y-49850000D03*
X112240000Y-50250000D03*
X112240000Y-50650000D03*
%TD*%
M02*
